<svg version="1.1" xmlns="http://www.w3.org/2000/svg" xmlns:xlink="http://www.w3.org/1999/xlink" width="756" height="566"><defs/><g><text fill="#eeeeee" stroke="none" font-family="Arial" font-size="24px" font-style="normal" font-weight="normal" text-decoration="none" x="0" y="0">UNREGISTERED</text><text fill="#eeeeee" stroke="none" font-family="Arial" font-size="24px" font-style="normal" font-weight="normal" text-decoration="none" x="0" y="30">UNREGISTERED</text><text fill="#eeeeee" stroke="none" font-family="Arial" font-size="24px" font-style="normal" font-weight="normal" text-decoration="none" x="0" y="60">UNREGISTERED</text><text fill="#eeeeee" stroke="none" font-family="Arial" font-size="24px" font-style="normal" font-weight="normal" text-decoration="none" x="0" y="90">UNREGISTERED</text><text fill="#eeeeee" stroke="none" font-family="Arial" font-size="24px" font-style="normal" font-weight="normal" text-decoration="none" x="0" y="120">UNREGISTERED</text><text fill="#eeeeee" stroke="none" font-family="Arial" font-size="24px" font-style="normal" font-weight="normal" text-decoration="none" x="0" y="150">UNREGISTERED</text><text fill="#eeeeee" stroke="none" font-family="Arial" font-size="24px" font-style="normal" font-weight="normal" text-decoration="none" x="0" y="180">UNREGISTERED</text><text fill="#eeeeee" stroke="none" font-family="Arial" font-size="24px" font-style="normal" font-weight="normal" text-decoration="none" x="0" y="210">UNREGISTERED</text><text fill="#eeeeee" stroke="none" font-family="Arial" font-size="24px" font-style="normal" font-weight="normal" text-decoration="none" x="0" y="240">UNREGISTERED</text><text fill="#eeeeee" stroke="none" font-family="Arial" font-size="24px" font-style="normal" font-weight="normal" text-decoration="none" x="0" y="270">UNREGISTERED</text><text fill="#eeeeee" stroke="none" font-family="Arial" font-size="24px" font-style="normal" font-weight="normal" text-decoration="none" x="0" y="300">UNREGISTERED</text><text fill="#eeeeee" stroke="none" font-family="Arial" font-size="24px" font-style="normal" font-weight="normal" text-decoration="none" x="0" y="330">UNREGISTERED</text><text fill="#eeeeee" stroke="none" font-family="Arial" font-size="24px" font-style="normal" font-weight="normal" text-decoration="none" x="0" y="360">UNREGISTERED</text><text fill="#eeeeee" stroke="none" font-family="Arial" font-size="24px" font-style="normal" font-weight="normal" text-decoration="none" x="0" y="390">UNREGISTERED</text><text fill="#eeeeee" stroke="none" font-family="Arial" font-size="24px" font-style="normal" font-weight="normal" text-decoration="none" x="0" y="420">UNREGISTERED</text><text fill="#eeeeee" stroke="none" font-family="Arial" font-size="24px" font-style="normal" font-weight="normal" text-decoration="none" x="0" y="450">UNREGISTERED</text><text fill="#eeeeee" stroke="none" font-family="Arial" font-size="24px" font-style="normal" font-weight="normal" text-decoration="none" x="0" y="480">UNREGISTERED</text><text fill="#eeeeee" stroke="none" font-family="Arial" font-size="24px" font-style="normal" font-weight="normal" text-decoration="none" x="0" y="510">UNREGISTERED</text><text fill="#eeeeee" stroke="none" font-family="Arial" font-size="24px" font-style="normal" font-weight="normal" text-decoration="none" x="0" y="540">UNREGISTERED</text><text fill="#eeeeee" stroke="none" font-family="Arial" font-size="24px" font-style="normal" font-weight="normal" text-decoration="none" x="200" y="0">UNREGISTERED</text><text fill="#eeeeee" stroke="none" font-family="Arial" font-size="24px" font-style="normal" font-weight="normal" text-decoration="none" x="200" y="30">UNREGISTERED</text><text fill="#eeeeee" stroke="none" font-family="Arial" font-size="24px" font-style="normal" font-weight="normal" text-decoration="none" x="200" y="60">UNREGISTERED</text><text fill="#eeeeee" stroke="none" font-family="Arial" font-size="24px" font-style="normal" font-weight="normal" text-decoration="none" x="200" y="90">UNREGISTERED</text><text fill="#eeeeee" stroke="none" font-family="Arial" font-size="24px" font-style="normal" font-weight="normal" text-decoration="none" x="200" y="120">UNREGISTERED</text><text fill="#eeeeee" stroke="none" font-family="Arial" font-size="24px" font-style="normal" font-weight="normal" text-decoration="none" x="200" y="150">UNREGISTERED</text><text fill="#eeeeee" stroke="none" font-family="Arial" font-size="24px" font-style="normal" font-weight="normal" text-decoration="none" x="200" y="180">UNREGISTERED</text><text fill="#eeeeee" stroke="none" font-family="Arial" font-size="24px" font-style="normal" font-weight="normal" text-decoration="none" x="200" y="210">UNREGISTERED</text><text fill="#eeeeee" stroke="none" font-family="Arial" font-size="24px" font-style="normal" font-weight="normal" text-decoration="none" x="200" y="240">UNREGISTERED</text><text fill="#eeeeee" stroke="none" font-family="Arial" font-size="24px" font-style="normal" font-weight="normal" text-decoration="none" x="200" y="270">UNREGISTERED</text><text fill="#eeeeee" stroke="none" font-family="Arial" font-size="24px" font-style="normal" font-weight="normal" text-decoration="none" x="200" y="300">UNREGISTERED</text><text fill="#eeeeee" stroke="none" font-family="Arial" font-size="24px" font-style="normal" font-weight="normal" text-decoration="none" x="200" y="330">UNREGISTERED</text><text fill="#eeeeee" stroke="none" font-family="Arial" font-size="24px" font-style="normal" font-weight="normal" text-decoration="none" x="200" y="360">UNREGISTERED</text><text fill="#eeeeee" stroke="none" font-family="Arial" font-size="24px" font-style="normal" font-weight="normal" text-decoration="none" x="200" y="390">UNREGISTERED</text><text fill="#eeeeee" stroke="none" font-family="Arial" font-size="24px" font-style="normal" font-weight="normal" text-decoration="none" x="200" y="420">UNREGISTERED</text><text fill="#eeeeee" stroke="none" font-family="Arial" font-size="24px" font-style="normal" font-weight="normal" text-decoration="none" x="200" y="450">UNREGISTERED</text><text fill="#eeeeee" stroke="none" font-family="Arial" font-size="24px" font-style="normal" font-weight="normal" text-decoration="none" x="200" y="480">UNREGISTERED</text><text fill="#eeeeee" stroke="none" font-family="Arial" font-size="24px" font-style="normal" font-weight="normal" text-decoration="none" x="200" y="510">UNREGISTERED</text><text fill="#eeeeee" stroke="none" font-family="Arial" font-size="24px" font-style="normal" font-weight="normal" text-decoration="none" x="200" y="540">UNREGISTERED</text><text fill="#eeeeee" stroke="none" font-family="Arial" font-size="24px" font-style="normal" font-weight="normal" text-decoration="none" x="400" y="0">UNREGISTERED</text><text fill="#eeeeee" stroke="none" font-family="Arial" font-size="24px" font-style="normal" font-weight="normal" text-decoration="none" x="400" y="30">UNREGISTERED</text><text fill="#eeeeee" stroke="none" font-family="Arial" font-size="24px" font-style="normal" font-weight="normal" text-decoration="none" x="400" y="60">UNREGISTERED</text><text fill="#eeeeee" stroke="none" font-family="Arial" font-size="24px" font-style="normal" font-weight="normal" text-decoration="none" x="400" y="90">UNREGISTERED</text><text fill="#eeeeee" stroke="none" font-family="Arial" font-size="24px" font-style="normal" font-weight="normal" text-decoration="none" x="400" y="120">UNREGISTERED</text><text fill="#eeeeee" stroke="none" font-family="Arial" font-size="24px" font-style="normal" font-weight="normal" text-decoration="none" x="400" y="150">UNREGISTERED</text><text fill="#eeeeee" stroke="none" font-family="Arial" font-size="24px" font-style="normal" font-weight="normal" text-decoration="none" x="400" y="180">UNREGISTERED</text><text fill="#eeeeee" stroke="none" font-family="Arial" font-size="24px" font-style="normal" font-weight="normal" text-decoration="none" x="400" y="210">UNREGISTERED</text><text fill="#eeeeee" stroke="none" font-family="Arial" font-size="24px" font-style="normal" font-weight="normal" text-decoration="none" x="400" y="240">UNREGISTERED</text><text fill="#eeeeee" stroke="none" font-family="Arial" font-size="24px" font-style="normal" font-weight="normal" text-decoration="none" x="400" y="270">UNREGISTERED</text><text fill="#eeeeee" stroke="none" font-family="Arial" font-size="24px" font-style="normal" font-weight="normal" text-decoration="none" x="400" y="300">UNREGISTERED</text><text fill="#eeeeee" stroke="none" font-family="Arial" font-size="24px" font-style="normal" font-weight="normal" text-decoration="none" x="400" y="330">UNREGISTERED</text><text fill="#eeeeee" stroke="none" font-family="Arial" font-size="24px" font-style="normal" font-weight="normal" text-decoration="none" x="400" y="360">UNREGISTERED</text><text fill="#eeeeee" stroke="none" font-family="Arial" font-size="24px" font-style="normal" font-weight="normal" text-decoration="none" x="400" y="390">UNREGISTERED</text><text fill="#eeeeee" stroke="none" font-family="Arial" font-size="24px" font-style="normal" font-weight="normal" text-decoration="none" x="400" y="420">UNREGISTERED</text><text fill="#eeeeee" stroke="none" font-family="Arial" font-size="24px" font-style="normal" font-weight="normal" text-decoration="none" x="400" y="450">UNREGISTERED</text><text fill="#eeeeee" stroke="none" font-family="Arial" font-size="24px" font-style="normal" font-weight="normal" text-decoration="none" x="400" y="480">UNREGISTERED</text><text fill="#eeeeee" stroke="none" font-family="Arial" font-size="24px" font-style="normal" font-weight="normal" text-decoration="none" x="400" y="510">UNREGISTERED</text><text fill="#eeeeee" stroke="none" font-family="Arial" font-size="24px" font-style="normal" font-weight="normal" text-decoration="none" x="400" y="540">UNREGISTERED</text><text fill="#eeeeee" stroke="none" font-family="Arial" font-size="24px" font-style="normal" font-weight="normal" text-decoration="none" x="600" y="0">UNREGISTERED</text><text fill="#eeeeee" stroke="none" font-family="Arial" font-size="24px" font-style="normal" font-weight="normal" text-decoration="none" x="600" y="30">UNREGISTERED</text><text fill="#eeeeee" stroke="none" font-family="Arial" font-size="24px" font-style="normal" font-weight="normal" text-decoration="none" x="600" y="60">UNREGISTERED</text><text fill="#eeeeee" stroke="none" font-family="Arial" font-size="24px" font-style="normal" font-weight="normal" text-decoration="none" x="600" y="90">UNREGISTERED</text><text fill="#eeeeee" stroke="none" font-family="Arial" font-size="24px" font-style="normal" font-weight="normal" text-decoration="none" x="600" y="120">UNREGISTERED</text><text fill="#eeeeee" stroke="none" font-family="Arial" font-size="24px" font-style="normal" font-weight="normal" text-decoration="none" x="600" y="150">UNREGISTERED</text><text fill="#eeeeee" stroke="none" font-family="Arial" font-size="24px" font-style="normal" font-weight="normal" text-decoration="none" x="600" y="180">UNREGISTERED</text><text fill="#eeeeee" stroke="none" font-family="Arial" font-size="24px" font-style="normal" font-weight="normal" text-decoration="none" x="600" y="210">UNREGISTERED</text><text fill="#eeeeee" stroke="none" font-family="Arial" font-size="24px" font-style="normal" font-weight="normal" text-decoration="none" x="600" y="240">UNREGISTERED</text><text fill="#eeeeee" stroke="none" font-family="Arial" font-size="24px" font-style="normal" font-weight="normal" text-decoration="none" x="600" y="270">UNREGISTERED</text><text fill="#eeeeee" stroke="none" font-family="Arial" font-size="24px" font-style="normal" font-weight="normal" text-decoration="none" x="600" y="300">UNREGISTERED</text><text fill="#eeeeee" stroke="none" font-family="Arial" font-size="24px" font-style="normal" font-weight="normal" text-decoration="none" x="600" y="330">UNREGISTERED</text><text fill="#eeeeee" stroke="none" font-family="Arial" font-size="24px" font-style="normal" font-weight="normal" text-decoration="none" x="600" y="360">UNREGISTERED</text><text fill="#eeeeee" stroke="none" font-family="Arial" font-size="24px" font-style="normal" font-weight="normal" text-decoration="none" x="600" y="390">UNREGISTERED</text><text fill="#eeeeee" stroke="none" font-family="Arial" font-size="24px" font-style="normal" font-weight="normal" text-decoration="none" x="600" y="420">UNREGISTERED</text><text fill="#eeeeee" stroke="none" font-family="Arial" font-size="24px" font-style="normal" font-weight="normal" text-decoration="none" x="600" y="450">UNREGISTERED</text><text fill="#eeeeee" stroke="none" font-family="Arial" font-size="24px" font-style="normal" font-weight="normal" text-decoration="none" x="600" y="480">UNREGISTERED</text><text fill="#eeeeee" stroke="none" font-family="Arial" font-size="24px" font-style="normal" font-weight="normal" text-decoration="none" x="600" y="510">UNREGISTERED</text><text fill="#eeeeee" stroke="none" font-family="Arial" font-size="24px" font-style="normal" font-weight="normal" text-decoration="none" x="600" y="540">UNREGISTERED</text><g transform="translate(-46,-38) scale(1,1)"><path fill="#008400" stroke="none" d="M 73.5 48 L 126.13720703125 48 Q 143.63720703125 48 143.63720703125 65.5 L 143.63720703125 64.5 Q 143.63720703125 82 126.13720703125 82 L 73.5 82 Q 56 82 56 64.5 L 56 65.5 Q 56 48 73.5 48 Z"/></g><g transform="translate(-46,-38) scale(1,1)"><path fill="none" stroke="#000000" d="M 73.5 48 L 126.13720703125 48 Q 143.63720703125 48 143.63720703125 65.5 L 143.63720703125 64.5 Q 143.63720703125 82 126.13720703125 82 L 73.5 82 Q 56 82 56 64.5 L 56 65.5 Q 56 48 73.5 48 Z" stroke-miterlimit="10"/></g><g transform="translate(-46,-38) scale(1,1)"><g><path fill="none" stroke="none"/><text fill="#000000" stroke="none" font-family="Arial" font-size="15px" font-style="normal" font-weight="normal" text-decoration="none" x="83.97998046875" y="72.5">Start</text></g></g><g transform="translate(-46,-38) scale(1,1)"><path fill="#000000" stroke="#000000" d="M 564 48 C 545.2223168 48 530 58.9690224 530 72.5 C 530 86.0309776 545.2223168 97 564 97 L 324 97 C 305.2223168 97 290 86.0309776 290 72.5 C 290 58.9690224 305.2223168 48 324 48 L 564 48 Z" stroke-miterlimit="10"/></g><g transform="translate(-46,-38) scale(1,1)"><g><path fill="none" stroke="none"/><text fill="#ffffff" stroke="none" font-family="Arial" font-size="15px" font-style="normal" font-weight="normal" text-decoration="none" x="324.025146484375" y="72.5">Reservable_book_examplaries</text><text fill="#ffffff" stroke="none" font-family="Arial" font-size="15px" font-style="normal" font-weight="normal" text-decoration="none" x="417.833740234375" y="87.5">list</text></g></g><g transform="translate(-46,-38) scale(1,1)"><path fill="none" stroke="#000000" d="M 144 68 L 290 68" stroke-miterlimit="10"/></g><g transform="translate(-46,-38) scale(1,1)"><path fill="#000000" stroke="none" d="M 279.83732514237585 72.20951775601598 L 290 68 L 279.83732514237585 63.790482243984016"/></g><g transform="translate(-46,-38) scale(1,1)"><path fill="none" stroke="#000000" d="M 279.83732514237585 72.20951775601598 L 290 68 L 279.83732514237585 63.790482243984016 L 279.83732514237585 72.20951775601598" stroke-miterlimit="10"/></g><g transform="translate(-46,-38) scale(1,1)"><rect fill="#568eff" stroke="none" x="372" y="251" width="111" height="34"/></g><g transform="translate(-46,-38) scale(1,1)"><path fill="none" stroke="#000000" d="M 372 251 L 483 251 L 483 285 L 372 285 L 372 251 Z Z" stroke-miterlimit="10"/></g><g transform="translate(-46,-38) scale(1,1)"><g><path fill="none" stroke="none"/><text fill="#000000" stroke="none" font-family="Arial" font-size="15px" font-style="normal" font-weight="normal" text-decoration="none" x="406.23779296875" y="275.5">Iterate</text></g></g><g transform="translate(-46,-38) scale(1,1)"><path fill="#ffff00" stroke="none" d="M 359 379.5 L 427 350 L 495 379.5 L 427 409 L 359 379.5"/></g><g transform="translate(-46,-38) scale(1,1)"><path fill="none" stroke="#000000" d="M 359 379.5 L 427 350 L 495 379.5 L 427 409 L 359 379.5 L 359 379.5" stroke-miterlimit="10"/></g><g transform="translate(-46,-38) scale(1,1)"><g><path fill="none" stroke="none"/><text fill="#000000" stroke="none" font-family="Arial" font-size="15px" font-style="normal" font-weight="normal" text-decoration="none" x="394.476806640625" y="387">List end ?</text></g></g><g transform="translate(-46,-38) scale(1,1)"><path fill="none" stroke="#000000" d="M 424 285 L 424 350" stroke-miterlimit="10"/></g><g transform="translate(-46,-38) scale(1,1)"><path fill="#000000" stroke="none" d="M 419.790482243984 339.83732514237585 L 424 350 L 428.209517756016 339.83732514237585"/></g><g transform="translate(-46,-38) scale(1,1)"><path fill="none" stroke="#000000" d="M 419.790482243984 339.83732514237585 L 424 350 L 428.209517756016 339.83732514237585 L 419.790482243984 339.83732514237585" stroke-miterlimit="10"/></g><g transform="translate(-46,-38) scale(1,1)"><rect fill="#568eff" stroke="none" x="331" y="480" width="192" height="94"/></g><g transform="translate(-46,-38) scale(1,1)"><path fill="none" stroke="#000000" d="M 331 480 L 523 480 L 523 574 L 331 574 L 331 480 Z Z" stroke-miterlimit="10"/></g><g transform="translate(-46,-38) scale(1,1)"><g><path fill="none" stroke="none"/><text fill="#000000" stroke="none" font-family="Arial" font-size="15px" font-style="normal" font-weight="normal" text-decoration="none" x="354.449951171875" y="504.5">DataTable add on this</text><text fill="#000000" stroke="none" font-family="Arial" font-size="15px" font-style="normal" font-weight="normal" text-decoration="none" x="345.291015625" y="519.5">line onclick PostRequest</text><text fill="#000000" stroke="none" font-family="Arial" font-size="15px" font-style="normal" font-weight="normal" text-decoration="none" x="356.130859375" y="534.5">book reservation with</text><text fill="#000000" stroke="none" font-family="Arial" font-size="15px" font-style="normal" font-weight="normal" text-decoration="none" x="343.1962890625" y="549.5">book_id and customer_id</text><text fill="#000000" stroke="none" font-family="Arial" font-size="15px" font-style="normal" font-weight="normal" text-decoration="none" x="382.81298828125" y="564.5">as parameter</text></g></g><g transform="translate(-46,-38) scale(1,1)"><path fill="none" stroke="#ff3f00" d="M 424 409 L 424 480" stroke-miterlimit="10"/></g><g transform="translate(-46,-38) scale(1,1)"><path fill="#ff3f00" stroke="none" d="M 419.790482243984 469.83732514237585 L 424 480 L 428.209517756016 469.83732514237585"/></g><g transform="translate(-46,-38) scale(1,1)"><path fill="none" stroke="#ff3f00" d="M 419.790482243984 469.83732514237585 L 424 480 L 428.209517756016 469.83732514237585 L 419.790482243984 469.83732514237585" stroke-miterlimit="10"/></g><g transform="translate(-46,-38) scale(1,1)"><g><path fill="none" stroke="none"/><text fill="#ff3f00" stroke="none" font-family="Arial" font-size="15px" font-style="normal" font-weight="normal" text-decoration="none" x="428.5" y="446.5">No</text></g></g><g transform="translate(-46,-38) scale(1,1)"><path fill="none" stroke="#000000" d="M 331 520 L 280 520 M 280 520 A 8 8 0 0 1 272 512 L 272 272 M 272 272 A 8 8 0 0 1 280 264 L 372 264" stroke-miterlimit="10"/></g><g transform="translate(-46,-38) scale(1,1)"><path fill="#000000" stroke="none" d="M 361.83732514237585 268.209517756016 L 372 264 L 361.83732514237585 259.790482243984"/></g><g transform="translate(-46,-38) scale(1,1)"><path fill="none" stroke="#000000" d="M 361.83732514237585 268.209517756016 L 372 264 L 361.83732514237585 259.790482243984 L 361.83732514237585 268.209517756016" stroke-miterlimit="10"/></g><g transform="translate(-46,-38) scale(1,1)"><rect fill="#568eff" stroke="none" x="648" y="362" width="144" height="34"/></g><g transform="translate(-46,-38) scale(1,1)"><path fill="none" stroke="#000000" d="M 648 362 L 792 362 L 792 396 L 648 396 L 648 362 Z Z" stroke-miterlimit="10"/></g><g transform="translate(-46,-38) scale(1,1)"><g><path fill="none" stroke="none"/><text fill="#000000" stroke="none" font-family="Arial" font-size="15px" font-style="normal" font-weight="normal" text-decoration="none" x="659.55322265625" y="386.5">Display DataTable</text></g></g><g transform="translate(-46,-38) scale(1,1)"><path fill="none" stroke="#00ad00" d="M 495 376 L 648 376" stroke-miterlimit="10"/></g><g transform="translate(-46,-38) scale(1,1)"><path fill="#00ad00" stroke="none" d="M 637.8373251423759 380.209517756016 L 648 376 L 637.8373251423758 371.790482243984"/></g><g transform="translate(-46,-38) scale(1,1)"><path fill="none" stroke="#00ad00" d="M 637.8373251423759 380.209517756016 L 648 376 L 637.8373251423758 371.790482243984 L 637.8373251423759 380.209517756016" stroke-miterlimit="10"/></g><g transform="translate(-46,-38) scale(1,1)"><g><path fill="none" stroke="none"/><text fill="#00ad00" stroke="none" font-family="Arial" font-size="15px" font-style="normal" font-weight="normal" text-decoration="none" x="558.5" y="368.5">Yes</text></g></g><g transform="translate(-46,-38) scale(1,1)"><path fill="#ff0000" stroke="none" d="M 697.5 560 L 750.13720703125 560 Q 767.63720703125 560 767.63720703125 577.5 L 767.63720703125 576.5 Q 767.63720703125 594 750.13720703125 594 L 697.5 594 Q 680 594 680 576.5 L 680 577.5 Q 680 560 697.5 560 Z"/></g><g transform="translate(-46,-38) scale(1,1)"><path fill="none" stroke="#000000" d="M 697.5 560 L 750.13720703125 560 Q 767.63720703125 560 767.63720703125 577.5 L 767.63720703125 576.5 Q 767.63720703125 594 750.13720703125 594 L 697.5 594 Q 680 594 680 576.5 L 680 577.5 Q 680 560 697.5 560 Z" stroke-miterlimit="10"/></g><g transform="translate(-46,-38) scale(1,1)"><g><path fill="none" stroke="none"/><text fill="#000000" stroke="none" font-family="Arial" font-size="15px" font-style="normal" font-weight="normal" text-decoration="none" x="710.473876953125" y="584.5">End</text></g></g><g transform="translate(-46,-38) scale(1,1)"><path fill="none" stroke="#000000" d="M 720 396 L 720 560" stroke-miterlimit="10"/></g><g transform="translate(-46,-38) scale(1,1)"><path fill="#000000" stroke="none" d="M 715.790482243984 549.8373251423759 L 720 560 L 724.209517756016 549.8373251423759"/></g><g transform="translate(-46,-38) scale(1,1)"><path fill="none" stroke="#000000" d="M 715.790482243984 549.8373251423759 L 720 560 L 724.209517756016 549.8373251423759 L 715.790482243984 549.8373251423759" stroke-miterlimit="10"/></g><g transform="translate(-46,-38) scale(1,1)"><rect fill="#568eff" stroke="none" x="344" y="152" width="167" height="34"/></g><g transform="translate(-46,-38) scale(1,1)"><path fill="none" stroke="#000000" d="M 344 152 L 511 152 L 511 186 L 344 186 L 344 152 Z Z" stroke-miterlimit="10"/></g><g transform="translate(-46,-38) scale(1,1)"><g><path fill="none" stroke="none"/><text fill="#000000" stroke="none" font-family="Arial" font-size="15px" font-style="normal" font-weight="normal" text-decoration="none" x="369.13330078125" y="176.5">Create DataTable</text></g></g><g transform="translate(-46,-38) scale(1,1)"><path fill="none" stroke="#000000" d="M 427 97 L 427 152" stroke-miterlimit="10"/></g><g transform="translate(-46,-38) scale(1,1)"><path fill="#000000" stroke="none" d="M 422.790482243984 141.83732514237585 L 427 152 L 431.209517756016 141.83732514237585"/></g><g transform="translate(-46,-38) scale(1,1)"><path fill="none" stroke="#000000" d="M 422.790482243984 141.83732514237585 L 427 152 L 431.209517756016 141.83732514237585 L 422.790482243984 141.83732514237585" stroke-miterlimit="10"/></g><g transform="translate(-46,-38) scale(1,1)"><path fill="none" stroke="#000000" d="M 427 186 L 427 251" stroke-miterlimit="10"/></g><g transform="translate(-46,-38) scale(1,1)"><path fill="#000000" stroke="none" d="M 422.790482243984 240.83732514237585 L 427 251 L 431.209517756016 240.83732514237585"/></g><g transform="translate(-46,-38) scale(1,1)"><path fill="none" stroke="#000000" d="M 422.790482243984 240.83732514237585 L 427 251 L 431.209517756016 240.83732514237585 L 422.790482243984 240.83732514237585" stroke-miterlimit="10"/></g></g></svg>