<svg version="1.1" xmlns="http://www.w3.org/2000/svg" xmlns:xlink="http://www.w3.org/1999/xlink" width="779" height="638"><defs/><g><text fill="#eeeeee" stroke="none" font-family="Arial" font-size="24px" font-style="normal" font-weight="normal" text-decoration="none" x="0" y="0">UNREGISTERED</text><text fill="#eeeeee" stroke="none" font-family="Arial" font-size="24px" font-style="normal" font-weight="normal" text-decoration="none" x="0" y="30">UNREGISTERED</text><text fill="#eeeeee" stroke="none" font-family="Arial" font-size="24px" font-style="normal" font-weight="normal" text-decoration="none" x="0" y="60">UNREGISTERED</text><text fill="#eeeeee" stroke="none" font-family="Arial" font-size="24px" font-style="normal" font-weight="normal" text-decoration="none" x="0" y="90">UNREGISTERED</text><text fill="#eeeeee" stroke="none" font-family="Arial" font-size="24px" font-style="normal" font-weight="normal" text-decoration="none" x="0" y="120">UNREGISTERED</text><text fill="#eeeeee" stroke="none" font-family="Arial" font-size="24px" font-style="normal" font-weight="normal" text-decoration="none" x="0" y="150">UNREGISTERED</text><text fill="#eeeeee" stroke="none" font-family="Arial" font-size="24px" font-style="normal" font-weight="normal" text-decoration="none" x="0" y="180">UNREGISTERED</text><text fill="#eeeeee" stroke="none" font-family="Arial" font-size="24px" font-style="normal" font-weight="normal" text-decoration="none" x="0" y="210">UNREGISTERED</text><text fill="#eeeeee" stroke="none" font-family="Arial" font-size="24px" font-style="normal" font-weight="normal" text-decoration="none" x="0" y="240">UNREGISTERED</text><text fill="#eeeeee" stroke="none" font-family="Arial" font-size="24px" font-style="normal" font-weight="normal" text-decoration="none" x="0" y="270">UNREGISTERED</text><text fill="#eeeeee" stroke="none" font-family="Arial" font-size="24px" font-style="normal" font-weight="normal" text-decoration="none" x="0" y="300">UNREGISTERED</text><text fill="#eeeeee" stroke="none" font-family="Arial" font-size="24px" font-style="normal" font-weight="normal" text-decoration="none" x="0" y="330">UNREGISTERED</text><text fill="#eeeeee" stroke="none" font-family="Arial" font-size="24px" font-style="normal" font-weight="normal" text-decoration="none" x="0" y="360">UNREGISTERED</text><text fill="#eeeeee" stroke="none" font-family="Arial" font-size="24px" font-style="normal" font-weight="normal" text-decoration="none" x="0" y="390">UNREGISTERED</text><text fill="#eeeeee" stroke="none" font-family="Arial" font-size="24px" font-style="normal" font-weight="normal" text-decoration="none" x="0" y="420">UNREGISTERED</text><text fill="#eeeeee" stroke="none" font-family="Arial" font-size="24px" font-style="normal" font-weight="normal" text-decoration="none" x="0" y="450">UNREGISTERED</text><text fill="#eeeeee" stroke="none" font-family="Arial" font-size="24px" font-style="normal" font-weight="normal" text-decoration="none" x="0" y="480">UNREGISTERED</text><text fill="#eeeeee" stroke="none" font-family="Arial" font-size="24px" font-style="normal" font-weight="normal" text-decoration="none" x="0" y="510">UNREGISTERED</text><text fill="#eeeeee" stroke="none" font-family="Arial" font-size="24px" font-style="normal" font-weight="normal" text-decoration="none" x="0" y="540">UNREGISTERED</text><text fill="#eeeeee" stroke="none" font-family="Arial" font-size="24px" font-style="normal" font-weight="normal" text-decoration="none" x="0" y="570">UNREGISTERED</text><text fill="#eeeeee" stroke="none" font-family="Arial" font-size="24px" font-style="normal" font-weight="normal" text-decoration="none" x="0" y="600">UNREGISTERED</text><text fill="#eeeeee" stroke="none" font-family="Arial" font-size="24px" font-style="normal" font-weight="normal" text-decoration="none" x="0" y="630">UNREGISTERED</text><text fill="#eeeeee" stroke="none" font-family="Arial" font-size="24px" font-style="normal" font-weight="normal" text-decoration="none" x="200" y="0">UNREGISTERED</text><text fill="#eeeeee" stroke="none" font-family="Arial" font-size="24px" font-style="normal" font-weight="normal" text-decoration="none" x="200" y="30">UNREGISTERED</text><text fill="#eeeeee" stroke="none" font-family="Arial" font-size="24px" font-style="normal" font-weight="normal" text-decoration="none" x="200" y="60">UNREGISTERED</text><text fill="#eeeeee" stroke="none" font-family="Arial" font-size="24px" font-style="normal" font-weight="normal" text-decoration="none" x="200" y="90">UNREGISTERED</text><text fill="#eeeeee" stroke="none" font-family="Arial" font-size="24px" font-style="normal" font-weight="normal" text-decoration="none" x="200" y="120">UNREGISTERED</text><text fill="#eeeeee" stroke="none" font-family="Arial" font-size="24px" font-style="normal" font-weight="normal" text-decoration="none" x="200" y="150">UNREGISTERED</text><text fill="#eeeeee" stroke="none" font-family="Arial" font-size="24px" font-style="normal" font-weight="normal" text-decoration="none" x="200" y="180">UNREGISTERED</text><text fill="#eeeeee" stroke="none" font-family="Arial" font-size="24px" font-style="normal" font-weight="normal" text-decoration="none" x="200" y="210">UNREGISTERED</text><text fill="#eeeeee" stroke="none" font-family="Arial" font-size="24px" font-style="normal" font-weight="normal" text-decoration="none" x="200" y="240">UNREGISTERED</text><text fill="#eeeeee" stroke="none" font-family="Arial" font-size="24px" font-style="normal" font-weight="normal" text-decoration="none" x="200" y="270">UNREGISTERED</text><text fill="#eeeeee" stroke="none" font-family="Arial" font-size="24px" font-style="normal" font-weight="normal" text-decoration="none" x="200" y="300">UNREGISTERED</text><text fill="#eeeeee" stroke="none" font-family="Arial" font-size="24px" font-style="normal" font-weight="normal" text-decoration="none" x="200" y="330">UNREGISTERED</text><text fill="#eeeeee" stroke="none" font-family="Arial" font-size="24px" font-style="normal" font-weight="normal" text-decoration="none" x="200" y="360">UNREGISTERED</text><text fill="#eeeeee" stroke="none" font-family="Arial" font-size="24px" font-style="normal" font-weight="normal" text-decoration="none" x="200" y="390">UNREGISTERED</text><text fill="#eeeeee" stroke="none" font-family="Arial" font-size="24px" font-style="normal" font-weight="normal" text-decoration="none" x="200" y="420">UNREGISTERED</text><text fill="#eeeeee" stroke="none" font-family="Arial" font-size="24px" font-style="normal" font-weight="normal" text-decoration="none" x="200" y="450">UNREGISTERED</text><text fill="#eeeeee" stroke="none" font-family="Arial" font-size="24px" font-style="normal" font-weight="normal" text-decoration="none" x="200" y="480">UNREGISTERED</text><text fill="#eeeeee" stroke="none" font-family="Arial" font-size="24px" font-style="normal" font-weight="normal" text-decoration="none" x="200" y="510">UNREGISTERED</text><text fill="#eeeeee" stroke="none" font-family="Arial" font-size="24px" font-style="normal" font-weight="normal" text-decoration="none" x="200" y="540">UNREGISTERED</text><text fill="#eeeeee" stroke="none" font-family="Arial" font-size="24px" font-style="normal" font-weight="normal" text-decoration="none" x="200" y="570">UNREGISTERED</text><text fill="#eeeeee" stroke="none" font-family="Arial" font-size="24px" font-style="normal" font-weight="normal" text-decoration="none" x="200" y="600">UNREGISTERED</text><text fill="#eeeeee" stroke="none" font-family="Arial" font-size="24px" font-style="normal" font-weight="normal" text-decoration="none" x="200" y="630">UNREGISTERED</text><text fill="#eeeeee" stroke="none" font-family="Arial" font-size="24px" font-style="normal" font-weight="normal" text-decoration="none" x="400" y="0">UNREGISTERED</text><text fill="#eeeeee" stroke="none" font-family="Arial" font-size="24px" font-style="normal" font-weight="normal" text-decoration="none" x="400" y="30">UNREGISTERED</text><text fill="#eeeeee" stroke="none" font-family="Arial" font-size="24px" font-style="normal" font-weight="normal" text-decoration="none" x="400" y="60">UNREGISTERED</text><text fill="#eeeeee" stroke="none" font-family="Arial" font-size="24px" font-style="normal" font-weight="normal" text-decoration="none" x="400" y="90">UNREGISTERED</text><text fill="#eeeeee" stroke="none" font-family="Arial" font-size="24px" font-style="normal" font-weight="normal" text-decoration="none" x="400" y="120">UNREGISTERED</text><text fill="#eeeeee" stroke="none" font-family="Arial" font-size="24px" font-style="normal" font-weight="normal" text-decoration="none" x="400" y="150">UNREGISTERED</text><text fill="#eeeeee" stroke="none" font-family="Arial" font-size="24px" font-style="normal" font-weight="normal" text-decoration="none" x="400" y="180">UNREGISTERED</text><text fill="#eeeeee" stroke="none" font-family="Arial" font-size="24px" font-style="normal" font-weight="normal" text-decoration="none" x="400" y="210">UNREGISTERED</text><text fill="#eeeeee" stroke="none" font-family="Arial" font-size="24px" font-style="normal" font-weight="normal" text-decoration="none" x="400" y="240">UNREGISTERED</text><text fill="#eeeeee" stroke="none" font-family="Arial" font-size="24px" font-style="normal" font-weight="normal" text-decoration="none" x="400" y="270">UNREGISTERED</text><text fill="#eeeeee" stroke="none" font-family="Arial" font-size="24px" font-style="normal" font-weight="normal" text-decoration="none" x="400" y="300">UNREGISTERED</text><text fill="#eeeeee" stroke="none" font-family="Arial" font-size="24px" font-style="normal" font-weight="normal" text-decoration="none" x="400" y="330">UNREGISTERED</text><text fill="#eeeeee" stroke="none" font-family="Arial" font-size="24px" font-style="normal" font-weight="normal" text-decoration="none" x="400" y="360">UNREGISTERED</text><text fill="#eeeeee" stroke="none" font-family="Arial" font-size="24px" font-style="normal" font-weight="normal" text-decoration="none" x="400" y="390">UNREGISTERED</text><text fill="#eeeeee" stroke="none" font-family="Arial" font-size="24px" font-style="normal" font-weight="normal" text-decoration="none" x="400" y="420">UNREGISTERED</text><text fill="#eeeeee" stroke="none" font-family="Arial" font-size="24px" font-style="normal" font-weight="normal" text-decoration="none" x="400" y="450">UNREGISTERED</text><text fill="#eeeeee" stroke="none" font-family="Arial" font-size="24px" font-style="normal" font-weight="normal" text-decoration="none" x="400" y="480">UNREGISTERED</text><text fill="#eeeeee" stroke="none" font-family="Arial" font-size="24px" font-style="normal" font-weight="normal" text-decoration="none" x="400" y="510">UNREGISTERED</text><text fill="#eeeeee" stroke="none" font-family="Arial" font-size="24px" font-style="normal" font-weight="normal" text-decoration="none" x="400" y="540">UNREGISTERED</text><text fill="#eeeeee" stroke="none" font-family="Arial" font-size="24px" font-style="normal" font-weight="normal" text-decoration="none" x="400" y="570">UNREGISTERED</text><text fill="#eeeeee" stroke="none" font-family="Arial" font-size="24px" font-style="normal" font-weight="normal" text-decoration="none" x="400" y="600">UNREGISTERED</text><text fill="#eeeeee" stroke="none" font-family="Arial" font-size="24px" font-style="normal" font-weight="normal" text-decoration="none" x="400" y="630">UNREGISTERED</text><text fill="#eeeeee" stroke="none" font-family="Arial" font-size="24px" font-style="normal" font-weight="normal" text-decoration="none" x="600" y="0">UNREGISTERED</text><text fill="#eeeeee" stroke="none" font-family="Arial" font-size="24px" font-style="normal" font-weight="normal" text-decoration="none" x="600" y="30">UNREGISTERED</text><text fill="#eeeeee" stroke="none" font-family="Arial" font-size="24px" font-style="normal" font-weight="normal" text-decoration="none" x="600" y="60">UNREGISTERED</text><text fill="#eeeeee" stroke="none" font-family="Arial" font-size="24px" font-style="normal" font-weight="normal" text-decoration="none" x="600" y="90">UNREGISTERED</text><text fill="#eeeeee" stroke="none" font-family="Arial" font-size="24px" font-style="normal" font-weight="normal" text-decoration="none" x="600" y="120">UNREGISTERED</text><text fill="#eeeeee" stroke="none" font-family="Arial" font-size="24px" font-style="normal" font-weight="normal" text-decoration="none" x="600" y="150">UNREGISTERED</text><text fill="#eeeeee" stroke="none" font-family="Arial" font-size="24px" font-style="normal" font-weight="normal" text-decoration="none" x="600" y="180">UNREGISTERED</text><text fill="#eeeeee" stroke="none" font-family="Arial" font-size="24px" font-style="normal" font-weight="normal" text-decoration="none" x="600" y="210">UNREGISTERED</text><text fill="#eeeeee" stroke="none" font-family="Arial" font-size="24px" font-style="normal" font-weight="normal" text-decoration="none" x="600" y="240">UNREGISTERED</text><text fill="#eeeeee" stroke="none" font-family="Arial" font-size="24px" font-style="normal" font-weight="normal" text-decoration="none" x="600" y="270">UNREGISTERED</text><text fill="#eeeeee" stroke="none" font-family="Arial" font-size="24px" font-style="normal" font-weight="normal" text-decoration="none" x="600" y="300">UNREGISTERED</text><text fill="#eeeeee" stroke="none" font-family="Arial" font-size="24px" font-style="normal" font-weight="normal" text-decoration="none" x="600" y="330">UNREGISTERED</text><text fill="#eeeeee" stroke="none" font-family="Arial" font-size="24px" font-style="normal" font-weight="normal" text-decoration="none" x="600" y="360">UNREGISTERED</text><text fill="#eeeeee" stroke="none" font-family="Arial" font-size="24px" font-style="normal" font-weight="normal" text-decoration="none" x="600" y="390">UNREGISTERED</text><text fill="#eeeeee" stroke="none" font-family="Arial" font-size="24px" font-style="normal" font-weight="normal" text-decoration="none" x="600" y="420">UNREGISTERED</text><text fill="#eeeeee" stroke="none" font-family="Arial" font-size="24px" font-style="normal" font-weight="normal" text-decoration="none" x="600" y="450">UNREGISTERED</text><text fill="#eeeeee" stroke="none" font-family="Arial" font-size="24px" font-style="normal" font-weight="normal" text-decoration="none" x="600" y="480">UNREGISTERED</text><text fill="#eeeeee" stroke="none" font-family="Arial" font-size="24px" font-style="normal" font-weight="normal" text-decoration="none" x="600" y="510">UNREGISTERED</text><text fill="#eeeeee" stroke="none" font-family="Arial" font-size="24px" font-style="normal" font-weight="normal" text-decoration="none" x="600" y="540">UNREGISTERED</text><text fill="#eeeeee" stroke="none" font-family="Arial" font-size="24px" font-style="normal" font-weight="normal" text-decoration="none" x="600" y="570">UNREGISTERED</text><text fill="#eeeeee" stroke="none" font-family="Arial" font-size="24px" font-style="normal" font-weight="normal" text-decoration="none" x="600" y="600">UNREGISTERED</text><text fill="#eeeeee" stroke="none" font-family="Arial" font-size="24px" font-style="normal" font-weight="normal" text-decoration="none" x="600" y="630">UNREGISTERED</text><g transform="translate(-38,-30) scale(1,1)"><path fill="#008400" stroke="none" d="M 121.5 40 L 174.13720703125 40 Q 191.63720703125 40 191.63720703125 57.5 L 191.63720703125 56.5 Q 191.63720703125 74 174.13720703125 74 L 121.5 74 Q 104 74 104 56.5 L 104 57.5 Q 104 40 121.5 40 Z"/></g><g transform="translate(-38,-30) scale(1,1)"><path fill="none" stroke="#000000" d="M 121.5 40 L 174.13720703125 40 Q 191.63720703125 40 191.63720703125 57.5 L 191.63720703125 56.5 Q 191.63720703125 74 174.13720703125 74 L 121.5 74 Q 104 74 104 56.5 L 104 57.5 Q 104 40 121.5 40 Z" stroke-miterlimit="10"/></g><g transform="translate(-38,-30) scale(1,1)"><g><path fill="none" stroke="none"/><text fill="#000000" stroke="none" font-family="Arial" font-size="15px" font-style="normal" font-weight="normal" text-decoration="none" x="131.97998046875" y="64.5">Start</text></g></g><g transform="translate(-38,-30) scale(1,1)"><path fill="#d63500" stroke="none" d="M 548 48 L 647 48 L 627 82 L 528 82 L 548 48"/></g><g transform="translate(-38,-30) scale(1,1)"><path fill="none" stroke="#000000" d="M 548 48 L 647 48 L 627 82 L 528 82 L 548 48 L 548 48" stroke-miterlimit="10"/></g><g transform="translate(-38,-30) scale(1,1)"><g><path fill="none" stroke="none"/><text fill="#000000" stroke="none" font-family="Arial" font-size="15px" font-style="normal" font-weight="normal" text-decoration="none" x="561.22802734375" y="72.5">book_id</text></g></g><g transform="translate(-38,-30) scale(1,1)"><path fill="#d63500" stroke="none" d="M 708 48 L 807 48 L 787 82 L 688 82 L 708 48"/></g><g transform="translate(-38,-30) scale(1,1)"><path fill="none" stroke="#000000" d="M 708 48 L 807 48 L 787 82 L 688 82 L 708 48 L 708 48" stroke-miterlimit="10"/></g><g transform="translate(-38,-30) scale(1,1)"><g><path fill="none" stroke="none"/><text fill="#000000" stroke="none" font-family="Arial" font-size="15px" font-style="normal" font-weight="normal" text-decoration="none" x="706.649169921875" y="72.5">customer_id</text></g></g><g transform="translate(-38,-30) scale(1,1)"><rect fill="#568eff" stroke="none" x="306" y="104" width="127" height="49"/></g><g transform="translate(-38,-30) scale(1,1)"><path fill="none" stroke="#000000" d="M 306 104 L 433 104 L 433 153 L 306 153 L 306 104 Z Z" stroke-miterlimit="10"/></g><g transform="translate(-38,-30) scale(1,1)"><g><path fill="none" stroke="none"/><text fill="#000000" stroke="none" font-family="Arial" font-size="15px" font-style="normal" font-weight="normal" text-decoration="none" x="344.491455078125" y="128.5">click on</text><text fill="#000000" stroke="none" font-family="Arial" font-size="15px" font-style="normal" font-weight="normal" text-decoration="none" x="319.061767578125" y="143.5">reservation link</text></g></g><g transform="translate(-38,-30) scale(1,1)"><rect fill="#568eff" stroke="none" x="295" y="208" width="148" height="49"/></g><g transform="translate(-38,-30) scale(1,1)"><path fill="none" stroke="#000000" d="M 295 208 L 443 208 L 443 257 L 295 257 L 295 208 Z Z" stroke-miterlimit="10"/></g><g transform="translate(-38,-30) scale(1,1)"><g><path fill="none" stroke="none"/><text fill="#000000" stroke="none" font-family="Arial" font-size="15px" font-style="normal" font-weight="normal" text-decoration="none" x="305.209716796875" y="232.5">display acceptation</text><text fill="#000000" stroke="none" font-family="Arial" font-size="15px" font-style="normal" font-weight="normal" text-decoration="none" x="348.57275390625" y="247.5">modal</text></g></g><g transform="translate(-38,-30) scale(1,1)"><path fill="#ffff00" stroke="none" d="M 287 363 L 369.5 327 L 452 363 L 369.5 399 L 287 363"/></g><g transform="translate(-38,-30) scale(1,1)"><path fill="none" stroke="#000000" d="M 287 363 L 369.5 327 L 452 363 L 369.5 399 L 287 363 L 287 363" stroke-miterlimit="10"/></g><g transform="translate(-38,-30) scale(1,1)"><g><path fill="none" stroke="none"/><text fill="#000000" stroke="none" font-family="Arial" font-size="15px" font-style="normal" font-weight="normal" text-decoration="none" x="331.974365234375" y="370.5">Accepted ?</text></g></g><g transform="translate(-38,-30) scale(1,1)"><path fill="#ff0000" stroke="none" d="M 343.5 624 L 396.13720703125 624 Q 413.63720703125 624 413.63720703125 641.5 L 413.63720703125 640.5 Q 413.63720703125 658 396.13720703125 658 L 343.5 658 Q 326 658 326 640.5 L 326 641.5 Q 326 624 343.5 624 Z"/></g><g transform="translate(-38,-30) scale(1,1)"><path fill="none" stroke="#000000" d="M 343.5 624 L 396.13720703125 624 Q 413.63720703125 624 413.63720703125 641.5 L 413.63720703125 640.5 Q 413.63720703125 658 396.13720703125 658 L 343.5 658 Q 326 658 326 640.5 L 326 641.5 Q 326 624 343.5 624 Z" stroke-miterlimit="10"/></g><g transform="translate(-38,-30) scale(1,1)"><g><path fill="none" stroke="none"/><text fill="#000000" stroke="none" font-family="Arial" font-size="15px" font-style="normal" font-weight="normal" text-decoration="none" x="356.473876953125" y="648.5">End</text></g></g><g transform="translate(-38,-30) scale(1,1)"><rect fill="#568eff" stroke="none" x="584" y="331" width="160" height="64"/></g><g transform="translate(-38,-30) scale(1,1)"><path fill="none" stroke="#000000" d="M 584 331 L 744 331 L 744 395 L 584 395 L 584 331 Z Z" stroke-miterlimit="10"/></g><g transform="translate(-38,-30) scale(1,1)"><g><path fill="none" stroke="none"/><text fill="#000000" stroke="none" font-family="Arial" font-size="15px" font-style="normal" font-weight="normal" text-decoration="none" x="623.97314453125" y="355.5">Post data to</text><text fill="#000000" stroke="none" font-family="Arial" font-size="15px" font-style="normal" font-weight="normal" text-decoration="none" x="600.217041015625" y="370.5">back-end controller</text><text fill="#000000" stroke="none" font-family="Arial" font-size="15px" font-style="normal" font-weight="normal" text-decoration="none" x="626.899169921875" y="385.5">reservation</text></g></g><g transform="translate(-38,-30) scale(1,1)"><path fill="none" stroke="#000000" d="M 192 56 L 360 56 M 360 56 A 8 8 0 0 1 368 64 L 368 104" stroke-miterlimit="10"/></g><g transform="translate(-38,-30) scale(1,1)"><path fill="#000000" stroke="none" d="M 363.790482243984 93.83732514237585 L 368 104 L 372.209517756016 93.83732514237585"/></g><g transform="translate(-38,-30) scale(1,1)"><path fill="none" stroke="#000000" d="M 363.790482243984 93.83732514237585 L 368 104 L 372.209517756016 93.83732514237585 L 363.790482243984 93.83732514237585" stroke-miterlimit="10"/></g><g transform="translate(-38,-30) scale(1,1)"><path fill="none" stroke="#000000" d="M 367 153 L 367 208" stroke-miterlimit="10"/></g><g transform="translate(-38,-30) scale(1,1)"><path fill="#000000" stroke="none" d="M 362.790482243984 197.83732514237585 L 367 208 L 371.209517756016 197.83732514237585"/></g><g transform="translate(-38,-30) scale(1,1)"><path fill="none" stroke="#000000" d="M 362.790482243984 197.83732514237585 L 367 208 L 371.209517756016 197.83732514237585 L 362.790482243984 197.83732514237585" stroke-miterlimit="10"/></g><g transform="translate(-38,-30) scale(1,1)"><path fill="none" stroke="#000000" d="M 368 257 L 368 327" stroke-miterlimit="10"/></g><g transform="translate(-38,-30) scale(1,1)"><path fill="#000000" stroke="none" d="M 363.790482243984 316.83732514237585 L 368 327 L 372.209517756016 316.83732514237585"/></g><g transform="translate(-38,-30) scale(1,1)"><path fill="none" stroke="#000000" d="M 363.790482243984 316.83732514237585 L 368 327 L 372.209517756016 316.83732514237585 L 363.790482243984 316.83732514237585" stroke-miterlimit="10"/></g><g transform="translate(-38,-30) scale(1,1)"><path fill="none" stroke="#00ad00" d="M 452 368 L 584 368" stroke-miterlimit="10"/></g><g transform="translate(-38,-30) scale(1,1)"><path fill="#00ad00" stroke="none" d="M 573.8373251423759 372.209517756016 L 584 368 L 573.8373251423758 363.790482243984"/></g><g transform="translate(-38,-30) scale(1,1)"><path fill="none" stroke="#00ad00" d="M 573.8373251423759 372.209517756016 L 584 368 L 573.8373251423758 363.790482243984 L 573.8373251423759 372.209517756016" stroke-miterlimit="10"/></g><g transform="translate(-38,-30) scale(1,1)"><g><path fill="none" stroke="none"/><text fill="#00ad00" stroke="none" font-family="Arial" font-size="15px" font-style="normal" font-weight="normal" text-decoration="none" x="505.5" y="360.5">Yes</text></g></g><g transform="translate(-38,-30) scale(1,1)"><path fill="none" stroke="#000000" d="M 648 395 L 648 632 M 648 632 A 8 8 0 0 1 640 640 L 414 640" stroke-miterlimit="10"/></g><g transform="translate(-38,-30) scale(1,1)"><path fill="#000000" stroke="none" d="M 424.16267485762415 635.790482243984 L 414 640 L 424.16267485762415 644.209517756016"/></g><g transform="translate(-38,-30) scale(1,1)"><path fill="none" stroke="#000000" d="M 424.16267485762415 635.790482243984 L 414 640 L 424.16267485762415 644.209517756016 L 424.16267485762415 635.790482243984" stroke-miterlimit="10"/></g><g transform="translate(-38,-30) scale(1,1)"><path fill="none" stroke="#000000" d="M 616 82 L 616 331" stroke-miterlimit="10"/></g><g transform="translate(-38,-30) scale(1,1)"><path fill="#000000" stroke="none" d="M 611.790482243984 320.83732514237585 L 616 331 L 620.209517756016 320.83732514237585"/></g><g transform="translate(-38,-30) scale(1,1)"><path fill="none" stroke="#000000" d="M 611.790482243984 320.83732514237585 L 616 331 L 620.209517756016 320.83732514237585 L 611.790482243984 320.83732514237585" stroke-miterlimit="10"/></g><g transform="translate(-38,-30) scale(1,1)"><path fill="none" stroke="#000000" d="M 712 82 L 712 331" stroke-miterlimit="10"/></g><g transform="translate(-38,-30) scale(1,1)"><path fill="#000000" stroke="none" d="M 707.790482243984 320.83732514237585 L 712 331 L 716.209517756016 320.83732514237585"/></g><g transform="translate(-38,-30) scale(1,1)"><path fill="none" stroke="#000000" d="M 707.790482243984 320.83732514237585 L 712 331 L 716.209517756016 320.83732514237585 L 707.790482243984 320.83732514237585" stroke-miterlimit="10"/></g><g transform="translate(-38,-30) scale(1,1)"><rect fill="#568eff" stroke="none" x="48" y="344" width="143" height="49"/></g><g transform="translate(-38,-30) scale(1,1)"><path fill="none" stroke="#000000" d="M 48 344 L 191 344 L 191 393 L 48 393 L 48 344 Z Z" stroke-miterlimit="10"/></g><g transform="translate(-38,-30) scale(1,1)"><g><path fill="none" stroke="none"/><text fill="#000000" stroke="none" font-family="Arial" font-size="15px" font-style="normal" font-weight="normal" text-decoration="none" x="61.547119140625" y="368.5">close acceptation</text><text fill="#000000" stroke="none" font-family="Arial" font-size="15px" font-style="normal" font-weight="normal" text-decoration="none" x="99.07275390625" y="383.5">modal</text></g></g><g transform="translate(-38,-30) scale(1,1)"><path fill="none" stroke="#ff3f00" d="M 287 368 L 191 368" stroke-miterlimit="10"/></g><g transform="translate(-38,-30) scale(1,1)"><path fill="#ff3f00" stroke="none" d="M 201.16267485762415 363.790482243984 L 191 368 L 201.16267485762415 372.209517756016"/></g><g transform="translate(-38,-30) scale(1,1)"><path fill="none" stroke="#ff3f00" d="M 201.16267485762415 363.790482243984 L 191 368 L 201.16267485762415 372.209517756016 L 201.16267485762415 363.790482243984" stroke-miterlimit="10"/></g><g transform="translate(-38,-30) scale(1,1)"><g><path fill="none" stroke="none"/><text fill="#ff3f00" stroke="none" font-family="Arial" font-size="15px" font-style="normal" font-weight="normal" text-decoration="none" x="231.5" y="358.5">No</text></g></g><g transform="translate(-38,-30) scale(1,1)"><path fill="none" stroke="#000000" d="M 112 393 L 112 632 M 112 632 A 8 8 0 0 0 120 640 L 326 640" stroke-miterlimit="10"/></g><g transform="translate(-38,-30) scale(1,1)"><path fill="#000000" stroke="none" d="M 315.83732514237585 644.209517756016 L 326 640 L 315.83732514237585 635.790482243984"/></g><g transform="translate(-38,-30) scale(1,1)"><path fill="none" stroke="#000000" d="M 315.83732514237585 644.209517756016 L 326 640 L 315.83732514237585 635.790482243984 L 315.83732514237585 644.209517756016" stroke-miterlimit="10"/></g></g></svg>