<svg version="1.1" xmlns="http://www.w3.org/2000/svg" xmlns:xlink="http://www.w3.org/1999/xlink" width="741" height="686"><defs/><g><text fill="#eeeeee" stroke="none" font-family="Arial" font-size="24px" font-style="normal" font-weight="normal" text-decoration="none" x="0" y="0">UNREGISTERED</text><text fill="#eeeeee" stroke="none" font-family="Arial" font-size="24px" font-style="normal" font-weight="normal" text-decoration="none" x="0" y="30">UNREGISTERED</text><text fill="#eeeeee" stroke="none" font-family="Arial" font-size="24px" font-style="normal" font-weight="normal" text-decoration="none" x="0" y="60">UNREGISTERED</text><text fill="#eeeeee" stroke="none" font-family="Arial" font-size="24px" font-style="normal" font-weight="normal" text-decoration="none" x="0" y="90">UNREGISTERED</text><text fill="#eeeeee" stroke="none" font-family="Arial" font-size="24px" font-style="normal" font-weight="normal" text-decoration="none" x="0" y="120">UNREGISTERED</text><text fill="#eeeeee" stroke="none" font-family="Arial" font-size="24px" font-style="normal" font-weight="normal" text-decoration="none" x="0" y="150">UNREGISTERED</text><text fill="#eeeeee" stroke="none" font-family="Arial" font-size="24px" font-style="normal" font-weight="normal" text-decoration="none" x="0" y="180">UNREGISTERED</text><text fill="#eeeeee" stroke="none" font-family="Arial" font-size="24px" font-style="normal" font-weight="normal" text-decoration="none" x="0" y="210">UNREGISTERED</text><text fill="#eeeeee" stroke="none" font-family="Arial" font-size="24px" font-style="normal" font-weight="normal" text-decoration="none" x="0" y="240">UNREGISTERED</text><text fill="#eeeeee" stroke="none" font-family="Arial" font-size="24px" font-style="normal" font-weight="normal" text-decoration="none" x="0" y="270">UNREGISTERED</text><text fill="#eeeeee" stroke="none" font-family="Arial" font-size="24px" font-style="normal" font-weight="normal" text-decoration="none" x="0" y="300">UNREGISTERED</text><text fill="#eeeeee" stroke="none" font-family="Arial" font-size="24px" font-style="normal" font-weight="normal" text-decoration="none" x="0" y="330">UNREGISTERED</text><text fill="#eeeeee" stroke="none" font-family="Arial" font-size="24px" font-style="normal" font-weight="normal" text-decoration="none" x="0" y="360">UNREGISTERED</text><text fill="#eeeeee" stroke="none" font-family="Arial" font-size="24px" font-style="normal" font-weight="normal" text-decoration="none" x="0" y="390">UNREGISTERED</text><text fill="#eeeeee" stroke="none" font-family="Arial" font-size="24px" font-style="normal" font-weight="normal" text-decoration="none" x="0" y="420">UNREGISTERED</text><text fill="#eeeeee" stroke="none" font-family="Arial" font-size="24px" font-style="normal" font-weight="normal" text-decoration="none" x="0" y="450">UNREGISTERED</text><text fill="#eeeeee" stroke="none" font-family="Arial" font-size="24px" font-style="normal" font-weight="normal" text-decoration="none" x="0" y="480">UNREGISTERED</text><text fill="#eeeeee" stroke="none" font-family="Arial" font-size="24px" font-style="normal" font-weight="normal" text-decoration="none" x="0" y="510">UNREGISTERED</text><text fill="#eeeeee" stroke="none" font-family="Arial" font-size="24px" font-style="normal" font-weight="normal" text-decoration="none" x="0" y="540">UNREGISTERED</text><text fill="#eeeeee" stroke="none" font-family="Arial" font-size="24px" font-style="normal" font-weight="normal" text-decoration="none" x="0" y="570">UNREGISTERED</text><text fill="#eeeeee" stroke="none" font-family="Arial" font-size="24px" font-style="normal" font-weight="normal" text-decoration="none" x="0" y="600">UNREGISTERED</text><text fill="#eeeeee" stroke="none" font-family="Arial" font-size="24px" font-style="normal" font-weight="normal" text-decoration="none" x="0" y="630">UNREGISTERED</text><text fill="#eeeeee" stroke="none" font-family="Arial" font-size="24px" font-style="normal" font-weight="normal" text-decoration="none" x="0" y="660">UNREGISTERED</text><text fill="#eeeeee" stroke="none" font-family="Arial" font-size="24px" font-style="normal" font-weight="normal" text-decoration="none" x="200" y="0">UNREGISTERED</text><text fill="#eeeeee" stroke="none" font-family="Arial" font-size="24px" font-style="normal" font-weight="normal" text-decoration="none" x="200" y="30">UNREGISTERED</text><text fill="#eeeeee" stroke="none" font-family="Arial" font-size="24px" font-style="normal" font-weight="normal" text-decoration="none" x="200" y="60">UNREGISTERED</text><text fill="#eeeeee" stroke="none" font-family="Arial" font-size="24px" font-style="normal" font-weight="normal" text-decoration="none" x="200" y="90">UNREGISTERED</text><text fill="#eeeeee" stroke="none" font-family="Arial" font-size="24px" font-style="normal" font-weight="normal" text-decoration="none" x="200" y="120">UNREGISTERED</text><text fill="#eeeeee" stroke="none" font-family="Arial" font-size="24px" font-style="normal" font-weight="normal" text-decoration="none" x="200" y="150">UNREGISTERED</text><text fill="#eeeeee" stroke="none" font-family="Arial" font-size="24px" font-style="normal" font-weight="normal" text-decoration="none" x="200" y="180">UNREGISTERED</text><text fill="#eeeeee" stroke="none" font-family="Arial" font-size="24px" font-style="normal" font-weight="normal" text-decoration="none" x="200" y="210">UNREGISTERED</text><text fill="#eeeeee" stroke="none" font-family="Arial" font-size="24px" font-style="normal" font-weight="normal" text-decoration="none" x="200" y="240">UNREGISTERED</text><text fill="#eeeeee" stroke="none" font-family="Arial" font-size="24px" font-style="normal" font-weight="normal" text-decoration="none" x="200" y="270">UNREGISTERED</text><text fill="#eeeeee" stroke="none" font-family="Arial" font-size="24px" font-style="normal" font-weight="normal" text-decoration="none" x="200" y="300">UNREGISTERED</text><text fill="#eeeeee" stroke="none" font-family="Arial" font-size="24px" font-style="normal" font-weight="normal" text-decoration="none" x="200" y="330">UNREGISTERED</text><text fill="#eeeeee" stroke="none" font-family="Arial" font-size="24px" font-style="normal" font-weight="normal" text-decoration="none" x="200" y="360">UNREGISTERED</text><text fill="#eeeeee" stroke="none" font-family="Arial" font-size="24px" font-style="normal" font-weight="normal" text-decoration="none" x="200" y="390">UNREGISTERED</text><text fill="#eeeeee" stroke="none" font-family="Arial" font-size="24px" font-style="normal" font-weight="normal" text-decoration="none" x="200" y="420">UNREGISTERED</text><text fill="#eeeeee" stroke="none" font-family="Arial" font-size="24px" font-style="normal" font-weight="normal" text-decoration="none" x="200" y="450">UNREGISTERED</text><text fill="#eeeeee" stroke="none" font-family="Arial" font-size="24px" font-style="normal" font-weight="normal" text-decoration="none" x="200" y="480">UNREGISTERED</text><text fill="#eeeeee" stroke="none" font-family="Arial" font-size="24px" font-style="normal" font-weight="normal" text-decoration="none" x="200" y="510">UNREGISTERED</text><text fill="#eeeeee" stroke="none" font-family="Arial" font-size="24px" font-style="normal" font-weight="normal" text-decoration="none" x="200" y="540">UNREGISTERED</text><text fill="#eeeeee" stroke="none" font-family="Arial" font-size="24px" font-style="normal" font-weight="normal" text-decoration="none" x="200" y="570">UNREGISTERED</text><text fill="#eeeeee" stroke="none" font-family="Arial" font-size="24px" font-style="normal" font-weight="normal" text-decoration="none" x="200" y="600">UNREGISTERED</text><text fill="#eeeeee" stroke="none" font-family="Arial" font-size="24px" font-style="normal" font-weight="normal" text-decoration="none" x="200" y="630">UNREGISTERED</text><text fill="#eeeeee" stroke="none" font-family="Arial" font-size="24px" font-style="normal" font-weight="normal" text-decoration="none" x="200" y="660">UNREGISTERED</text><text fill="#eeeeee" stroke="none" font-family="Arial" font-size="24px" font-style="normal" font-weight="normal" text-decoration="none" x="400" y="0">UNREGISTERED</text><text fill="#eeeeee" stroke="none" font-family="Arial" font-size="24px" font-style="normal" font-weight="normal" text-decoration="none" x="400" y="30">UNREGISTERED</text><text fill="#eeeeee" stroke="none" font-family="Arial" font-size="24px" font-style="normal" font-weight="normal" text-decoration="none" x="400" y="60">UNREGISTERED</text><text fill="#eeeeee" stroke="none" font-family="Arial" font-size="24px" font-style="normal" font-weight="normal" text-decoration="none" x="400" y="90">UNREGISTERED</text><text fill="#eeeeee" stroke="none" font-family="Arial" font-size="24px" font-style="normal" font-weight="normal" text-decoration="none" x="400" y="120">UNREGISTERED</text><text fill="#eeeeee" stroke="none" font-family="Arial" font-size="24px" font-style="normal" font-weight="normal" text-decoration="none" x="400" y="150">UNREGISTERED</text><text fill="#eeeeee" stroke="none" font-family="Arial" font-size="24px" font-style="normal" font-weight="normal" text-decoration="none" x="400" y="180">UNREGISTERED</text><text fill="#eeeeee" stroke="none" font-family="Arial" font-size="24px" font-style="normal" font-weight="normal" text-decoration="none" x="400" y="210">UNREGISTERED</text><text fill="#eeeeee" stroke="none" font-family="Arial" font-size="24px" font-style="normal" font-weight="normal" text-decoration="none" x="400" y="240">UNREGISTERED</text><text fill="#eeeeee" stroke="none" font-family="Arial" font-size="24px" font-style="normal" font-weight="normal" text-decoration="none" x="400" y="270">UNREGISTERED</text><text fill="#eeeeee" stroke="none" font-family="Arial" font-size="24px" font-style="normal" font-weight="normal" text-decoration="none" x="400" y="300">UNREGISTERED</text><text fill="#eeeeee" stroke="none" font-family="Arial" font-size="24px" font-style="normal" font-weight="normal" text-decoration="none" x="400" y="330">UNREGISTERED</text><text fill="#eeeeee" stroke="none" font-family="Arial" font-size="24px" font-style="normal" font-weight="normal" text-decoration="none" x="400" y="360">UNREGISTERED</text><text fill="#eeeeee" stroke="none" font-family="Arial" font-size="24px" font-style="normal" font-weight="normal" text-decoration="none" x="400" y="390">UNREGISTERED</text><text fill="#eeeeee" stroke="none" font-family="Arial" font-size="24px" font-style="normal" font-weight="normal" text-decoration="none" x="400" y="420">UNREGISTERED</text><text fill="#eeeeee" stroke="none" font-family="Arial" font-size="24px" font-style="normal" font-weight="normal" text-decoration="none" x="400" y="450">UNREGISTERED</text><text fill="#eeeeee" stroke="none" font-family="Arial" font-size="24px" font-style="normal" font-weight="normal" text-decoration="none" x="400" y="480">UNREGISTERED</text><text fill="#eeeeee" stroke="none" font-family="Arial" font-size="24px" font-style="normal" font-weight="normal" text-decoration="none" x="400" y="510">UNREGISTERED</text><text fill="#eeeeee" stroke="none" font-family="Arial" font-size="24px" font-style="normal" font-weight="normal" text-decoration="none" x="400" y="540">UNREGISTERED</text><text fill="#eeeeee" stroke="none" font-family="Arial" font-size="24px" font-style="normal" font-weight="normal" text-decoration="none" x="400" y="570">UNREGISTERED</text><text fill="#eeeeee" stroke="none" font-family="Arial" font-size="24px" font-style="normal" font-weight="normal" text-decoration="none" x="400" y="600">UNREGISTERED</text><text fill="#eeeeee" stroke="none" font-family="Arial" font-size="24px" font-style="normal" font-weight="normal" text-decoration="none" x="400" y="630">UNREGISTERED</text><text fill="#eeeeee" stroke="none" font-family="Arial" font-size="24px" font-style="normal" font-weight="normal" text-decoration="none" x="400" y="660">UNREGISTERED</text><text fill="#eeeeee" stroke="none" font-family="Arial" font-size="24px" font-style="normal" font-weight="normal" text-decoration="none" x="600" y="0">UNREGISTERED</text><text fill="#eeeeee" stroke="none" font-family="Arial" font-size="24px" font-style="normal" font-weight="normal" text-decoration="none" x="600" y="30">UNREGISTERED</text><text fill="#eeeeee" stroke="none" font-family="Arial" font-size="24px" font-style="normal" font-weight="normal" text-decoration="none" x="600" y="60">UNREGISTERED</text><text fill="#eeeeee" stroke="none" font-family="Arial" font-size="24px" font-style="normal" font-weight="normal" text-decoration="none" x="600" y="90">UNREGISTERED</text><text fill="#eeeeee" stroke="none" font-family="Arial" font-size="24px" font-style="normal" font-weight="normal" text-decoration="none" x="600" y="120">UNREGISTERED</text><text fill="#eeeeee" stroke="none" font-family="Arial" font-size="24px" font-style="normal" font-weight="normal" text-decoration="none" x="600" y="150">UNREGISTERED</text><text fill="#eeeeee" stroke="none" font-family="Arial" font-size="24px" font-style="normal" font-weight="normal" text-decoration="none" x="600" y="180">UNREGISTERED</text><text fill="#eeeeee" stroke="none" font-family="Arial" font-size="24px" font-style="normal" font-weight="normal" text-decoration="none" x="600" y="210">UNREGISTERED</text><text fill="#eeeeee" stroke="none" font-family="Arial" font-size="24px" font-style="normal" font-weight="normal" text-decoration="none" x="600" y="240">UNREGISTERED</text><text fill="#eeeeee" stroke="none" font-family="Arial" font-size="24px" font-style="normal" font-weight="normal" text-decoration="none" x="600" y="270">UNREGISTERED</text><text fill="#eeeeee" stroke="none" font-family="Arial" font-size="24px" font-style="normal" font-weight="normal" text-decoration="none" x="600" y="300">UNREGISTERED</text><text fill="#eeeeee" stroke="none" font-family="Arial" font-size="24px" font-style="normal" font-weight="normal" text-decoration="none" x="600" y="330">UNREGISTERED</text><text fill="#eeeeee" stroke="none" font-family="Arial" font-size="24px" font-style="normal" font-weight="normal" text-decoration="none" x="600" y="360">UNREGISTERED</text><text fill="#eeeeee" stroke="none" font-family="Arial" font-size="24px" font-style="normal" font-weight="normal" text-decoration="none" x="600" y="390">UNREGISTERED</text><text fill="#eeeeee" stroke="none" font-family="Arial" font-size="24px" font-style="normal" font-weight="normal" text-decoration="none" x="600" y="420">UNREGISTERED</text><text fill="#eeeeee" stroke="none" font-family="Arial" font-size="24px" font-style="normal" font-weight="normal" text-decoration="none" x="600" y="450">UNREGISTERED</text><text fill="#eeeeee" stroke="none" font-family="Arial" font-size="24px" font-style="normal" font-weight="normal" text-decoration="none" x="600" y="480">UNREGISTERED</text><text fill="#eeeeee" stroke="none" font-family="Arial" font-size="24px" font-style="normal" font-weight="normal" text-decoration="none" x="600" y="510">UNREGISTERED</text><text fill="#eeeeee" stroke="none" font-family="Arial" font-size="24px" font-style="normal" font-weight="normal" text-decoration="none" x="600" y="540">UNREGISTERED</text><text fill="#eeeeee" stroke="none" font-family="Arial" font-size="24px" font-style="normal" font-weight="normal" text-decoration="none" x="600" y="570">UNREGISTERED</text><text fill="#eeeeee" stroke="none" font-family="Arial" font-size="24px" font-style="normal" font-weight="normal" text-decoration="none" x="600" y="600">UNREGISTERED</text><text fill="#eeeeee" stroke="none" font-family="Arial" font-size="24px" font-style="normal" font-weight="normal" text-decoration="none" x="600" y="630">UNREGISTERED</text><text fill="#eeeeee" stroke="none" font-family="Arial" font-size="24px" font-style="normal" font-weight="normal" text-decoration="none" x="600" y="660">UNREGISTERED</text><g transform="translate(-62,-14) scale(1,1)"><path fill="#008400" stroke="none" d="M 89.5 35 L 152.69677734375 35 Q 170.19677734375 35 170.19677734375 52.5 L 170.19677734375 51.5 Q 170.19677734375 69 152.69677734375 69 L 89.5 69 Q 72 69 72 51.5 L 72 52.5 Q 72 35 89.5 35 Z"/></g><g transform="translate(-62,-14) scale(1,1)"><path fill="none" stroke="#000000" d="M 89.5 35 L 152.69677734375 35 Q 170.19677734375 35 170.19677734375 52.5 L 170.19677734375 51.5 Q 170.19677734375 69 152.69677734375 69 L 89.5 69 Q 72 69 72 51.5 L 72 52.5 Q 72 35 89.5 35 Z" stroke-miterlimit="10"/></g><g transform="translate(-62,-14) scale(1,1)"><g><path fill="none" stroke="none"/><text fill="#000000" stroke="none" font-family="Arial" font-size="15px" font-style="normal" font-weight="normal" text-decoration="none" x="105.259765625" y="59.5">Start</text></g></g><g transform="translate(-62,-14) scale(1,1)"><path fill="#d63500" stroke="none" d="M 476 24 L 576 24 L 556 58 L 456 58 L 476 24"/></g><g transform="translate(-62,-14) scale(1,1)"><path fill="none" stroke="#000000" d="M 476 24 L 576 24 L 556 58 L 456 58 L 476 24 L 476 24" stroke-miterlimit="10"/></g><g transform="translate(-62,-14) scale(1,1)"><g><path fill="none" stroke="none"/><text fill="#000000" stroke="none" font-family="Arial" font-size="15px" font-style="normal" font-weight="normal" text-decoration="none" x="489.72802734375" y="48.5">book_id</text></g></g><g transform="translate(-62,-14) scale(1,1)"><path fill="#d63500" stroke="none" d="M 524 96 L 624 96 L 604 130 L 504 130 L 524 96"/></g><g transform="translate(-62,-14) scale(1,1)"><path fill="none" stroke="#000000" d="M 524 96 L 624 96 L 604 130 L 504 130 L 524 96 L 524 96" stroke-miterlimit="10"/></g><g transform="translate(-62,-14) scale(1,1)"><g><path fill="none" stroke="none"/><text fill="#000000" stroke="none" font-family="Arial" font-size="15px" font-style="normal" font-weight="normal" text-decoration="none" x="523.149169921875" y="120.5">customer_id</text></g></g><g transform="translate(-62,-14) scale(1,1)"><rect fill="#568eff" stroke="none" x="248" y="120" width="135" height="47"/></g><g transform="translate(-62,-14) scale(1,1)"><path fill="none" stroke="#000000" d="M 248 120 L 383 120 L 383 167 L 248 167 L 248 120 Z Z" stroke-miterlimit="10"/></g><g transform="translate(-62,-14) scale(1,1)"><g><path fill="none" stroke="none"/><text fill="#000000" stroke="none" font-family="Arial" font-size="15px" font-style="normal" font-weight="normal" text-decoration="none" x="279.66259765625" y="144.5">Fill imputs </text></g></g><g transform="translate(-62,-14) scale(1,1)"><path fill="none" stroke="#000000" d="M 478 58 L 478 120 M 478 120 A 8 8 0 0 1 470 128 L 383 128" stroke-miterlimit="10"/></g><g transform="translate(-62,-14) scale(1,1)"><path fill="#000000" stroke="none" d="M 393.16267485762415 123.79048224398402 L 383 128 L 393.16267485762415 132.209517756016"/></g><g transform="translate(-62,-14) scale(1,1)"><path fill="none" stroke="#000000" d="M 393.16267485762415 123.79048224398402 L 383 128 L 393.16267485762415 132.209517756016 L 393.16267485762415 123.79048224398402" stroke-miterlimit="10"/></g><g transform="translate(-62,-14) scale(1,1)"><path fill="none" stroke="#000000" d="M 564 130 L 564 144 M 564 144 A 8 8 0 0 1 556 152 L 383 152" stroke-miterlimit="10"/></g><g transform="translate(-62,-14) scale(1,1)"><path fill="#000000" stroke="none" d="M 393.16267485762415 147.790482243984 L 383 152 L 393.16267485762415 156.209517756016"/></g><g transform="translate(-62,-14) scale(1,1)"><path fill="none" stroke="#000000" d="M 393.16267485762415 147.790482243984 L 383 152 L 393.16267485762415 156.209517756016 L 393.16267485762415 147.790482243984" stroke-miterlimit="10"/></g><g transform="translate(-62,-14) scale(1,1)"><path fill="none" stroke="#000000" d="M 170 48 L 312 48 M 312 48 A 8 8 0 0 1 320 56 L 320 120" stroke-miterlimit="10"/></g><g transform="translate(-62,-14) scale(1,1)"><path fill="#000000" stroke="none" d="M 315.790482243984 109.83732514237585 L 320 120 L 324.209517756016 109.83732514237585"/></g><g transform="translate(-62,-14) scale(1,1)"><path fill="none" stroke="#000000" d="M 315.790482243984 109.83732514237585 L 320 120 L 324.209517756016 109.83732514237585 L 315.790482243984 109.83732514237585" stroke-miterlimit="10"/></g><g transform="translate(-62,-14) scale(1,1)"><rect fill="#568eff" stroke="none" x="248" y="240" width="143" height="63"/></g><g transform="translate(-62,-14) scale(1,1)"><path fill="none" stroke="#000000" d="M 248 240 L 391 240 L 391 303 L 248 303 L 248 240 Z Z" stroke-miterlimit="10"/></g><g transform="translate(-62,-14) scale(1,1)"><g><path fill="none" stroke="none"/><text fill="#000000" stroke="none" font-family="Arial" font-size="15px" font-style="normal" font-weight="normal" text-decoration="none" x="294.908935546875" y="264.5">Display</text><text fill="#000000" stroke="none" font-family="Arial" font-size="15px" font-style="normal" font-weight="normal" text-decoration="none" x="258.62841796875" y="279.5">acceptation modal</text></g></g><g transform="translate(-62,-14) scale(1,1)"><path fill="none" stroke="#000000" d="M 316 167 L 316 240" stroke-miterlimit="10"/></g><g transform="translate(-62,-14) scale(1,1)"><path fill="#000000" stroke="none" d="M 311.790482243984 229.83732514237585 L 316 240 L 320.209517756016 229.83732514237585"/></g><g transform="translate(-62,-14) scale(1,1)"><path fill="none" stroke="#000000" d="M 311.790482243984 229.83732514237585 L 316 240 L 320.209517756016 229.83732514237585 L 311.790482243984 229.83732514237585" stroke-miterlimit="10"/></g><g transform="translate(-62,-14) scale(1,1)"><path fill="#ffff00" stroke="none" d="M 248 402.5 L 313.36669921875 373 L 378.7333984375 402.5 L 313.36669921875 432 L 248 402.5"/></g><g transform="translate(-62,-14) scale(1,1)"><path fill="none" stroke="#000000" d="M 248 402.5 L 313.36669921875 373 L 378.7333984375 402.5 L 313.36669921875 432 L 248 402.5 L 248 402.5" stroke-miterlimit="10"/></g><g transform="translate(-62,-14) scale(1,1)"><g><path fill="none" stroke="none"/><text fill="#000000" stroke="none" font-family="Arial" font-size="15px" font-style="normal" font-weight="normal" text-decoration="none" x="282.095947265625" y="402.5">Accepted</text><text fill="#000000" stroke="none" font-family="Arial" font-size="15px" font-style="normal" font-weight="normal" text-decoration="none" x="309.195556640625" y="417.5">?</text></g></g><g transform="translate(-62,-14) scale(1,1)"><path fill="none" stroke="#000000" d="M 317 303 L 317 373" stroke-miterlimit="10"/></g><g transform="translate(-62,-14) scale(1,1)"><path fill="#000000" stroke="none" d="M 312.790482243984 362.83732514237585 L 317 373 L 321.209517756016 362.83732514237585"/></g><g transform="translate(-62,-14) scale(1,1)"><path fill="none" stroke="#000000" d="M 312.790482243984 362.83732514237585 L 317 373 L 321.209517756016 362.83732514237585 L 312.790482243984 362.83732514237585" stroke-miterlimit="10"/></g><g transform="translate(-62,-14) scale(1,1)"><rect fill="#568eff" stroke="none" x="488" y="472" width="167" height="64"/></g><g transform="translate(-62,-14) scale(1,1)"><path fill="none" stroke="#000000" d="M 488 472 L 655 472 L 655 536 L 488 536 L 488 472 Z Z" stroke-miterlimit="10"/></g><g transform="translate(-62,-14) scale(1,1)"><g><path fill="none" stroke="none"/><text fill="#000000" stroke="none" font-family="Arial" font-size="15px" font-style="normal" font-weight="normal" text-decoration="none" x="498.5361328125" y="496.5">Post data to back-end</text><text fill="#000000" stroke="none" font-family="Arial" font-size="15px" font-style="normal" font-weight="normal" text-decoration="none" x="517.311767578125" y="511.5">controller collect</text><text fill="#000000" stroke="none" font-family="Arial" font-size="15px" font-style="normal" font-weight="normal" text-decoration="none" x="534.399169921875" y="526.5">reservation</text></g></g><g transform="translate(-62,-14) scale(1,1)"><path fill="none" stroke="#000000" d="M 576 24 L 784 24 M 784 24 A 8 8 0 0 1 792 32 L 792 512 M 792 512 A 8 8 0 0 1 784 520 L 655 520" stroke-miterlimit="10"/></g><g transform="translate(-62,-14) scale(1,1)"><path fill="#000000" stroke="none" d="M 665.1626748576241 515.790482243984 L 655 520 L 665.1626748576241 524.209517756016"/></g><g transform="translate(-62,-14) scale(1,1)"><path fill="none" stroke="#000000" d="M 665.1626748576241 515.790482243984 L 655 520 L 665.1626748576241 524.209517756016 L 665.1626748576241 515.790482243984" stroke-miterlimit="10"/></g><g transform="translate(-62,-14) scale(1,1)"><path fill="none" stroke="#000000" d="M 624 96 L 736 96 M 736 96 A 8 8 0 0 1 744 104 L 744 480 M 744 480 A 8 8 0 0 1 736 488 L 655 488" stroke-miterlimit="10"/></g><g transform="translate(-62,-14) scale(1,1)"><path fill="#000000" stroke="none" d="M 665.1626748576241 483.790482243984 L 655 488 L 665.1626748576241 492.209517756016"/></g><g transform="translate(-62,-14) scale(1,1)"><path fill="none" stroke="#000000" d="M 665.1626748576241 483.790482243984 L 655 488 L 665.1626748576241 492.209517756016 L 665.1626748576241 483.790482243984" stroke-miterlimit="10"/></g><g transform="translate(-62,-14) scale(1,1)"><path fill="none" stroke="#00ad00" d="M 379 400 L 568 400 M 568 400 A 8 8 0 0 1 576 408 L 576 472" stroke-miterlimit="10"/></g><g transform="translate(-62,-14) scale(1,1)"><path fill="#00ad00" stroke="none" d="M 571.790482243984 461.83732514237585 L 576 472 L 580.209517756016 461.83732514237585"/></g><g transform="translate(-62,-14) scale(1,1)"><path fill="none" stroke="#00ad00" d="M 571.790482243984 461.83732514237585 L 576 472 L 580.209517756016 461.83732514237585 L 571.790482243984 461.83732514237585" stroke-miterlimit="10"/></g><g transform="translate(-62,-14) scale(1,1)"><g><path fill="none" stroke="none"/><text fill="#00ad00" stroke="none" font-family="Arial" font-size="15px" font-style="normal" font-weight="normal" text-decoration="none" x="446.5" y="397.5">Yes</text></g></g><g transform="translate(-62,-14) scale(1,1)"><path fill="#ff0000" stroke="none" d="M 273.5 656 L 336.69677734375 656 Q 354.19677734375 656 354.19677734375 673.5 L 354.19677734375 672.5 Q 354.19677734375 690 336.69677734375 690 L 273.5 690 Q 256 690 256 672.5 L 256 673.5 Q 256 656 273.5 656 Z"/></g><g transform="translate(-62,-14) scale(1,1)"><path fill="none" stroke="#000000" d="M 273.5 656 L 336.69677734375 656 Q 354.19677734375 656 354.19677734375 673.5 L 354.19677734375 672.5 Q 354.19677734375 690 336.69677734375 690 L 273.5 690 Q 256 690 256 672.5 L 256 673.5 Q 256 656 273.5 656 Z" stroke-miterlimit="10"/></g><g transform="translate(-62,-14) scale(1,1)"><g><path fill="none" stroke="none"/><text fill="#000000" stroke="none" font-family="Arial" font-size="15px" font-style="normal" font-weight="normal" text-decoration="none" x="291.753662109375" y="680.5">End</text></g></g><g transform="translate(-62,-14) scale(1,1)"><path fill="none" stroke="#ff3f00" d="M 312 432 L 312 656" stroke-miterlimit="10"/></g><g transform="translate(-62,-14) scale(1,1)"><path fill="#ff3f00" stroke="none" d="M 307.790482243984 645.8373251423759 L 312 656 L 316.209517756016 645.8373251423759"/></g><g transform="translate(-62,-14) scale(1,1)"><path fill="none" stroke="#ff3f00" d="M 307.790482243984 645.8373251423759 L 312 656 L 316.209517756016 645.8373251423759 L 307.790482243984 645.8373251423759" stroke-miterlimit="10"/></g><g transform="translate(-62,-14) scale(1,1)"><g><path fill="none" stroke="none"/><text fill="#ff3f00" stroke="none" font-family="Arial" font-size="15px" font-style="normal" font-weight="normal" text-decoration="none" x="317.5" y="550.5">No</text></g></g><g transform="translate(-62,-14) scale(1,1)"><path fill="none" stroke="#000000" d="M 576 536 L 576 664 M 576 664 A 8 8 0 0 1 568 672 L 354 672" stroke-miterlimit="10"/></g><g transform="translate(-62,-14) scale(1,1)"><path fill="#000000" stroke="none" d="M 364.16267485762415 667.790482243984 L 354 672 L 364.16267485762415 676.209517756016"/></g><g transform="translate(-62,-14) scale(1,1)"><path fill="none" stroke="#000000" d="M 364.16267485762415 667.790482243984 L 354 672 L 364.16267485762415 676.209517756016 L 364.16267485762415 667.790482243984" stroke-miterlimit="10"/></g></g></svg>