<svg version="1.1" xmlns="http://www.w3.org/2000/svg" xmlns:xlink="http://www.w3.org/1999/xlink" width="916" height="574"><defs/><g><text fill="#eeeeee" stroke="none" font-family="Arial" font-size="24px" font-style="normal" font-weight="normal" text-decoration="none" x="0" y="0">UNREGISTERED</text><text fill="#eeeeee" stroke="none" font-family="Arial" font-size="24px" font-style="normal" font-weight="normal" text-decoration="none" x="0" y="30">UNREGISTERED</text><text fill="#eeeeee" stroke="none" font-family="Arial" font-size="24px" font-style="normal" font-weight="normal" text-decoration="none" x="0" y="60">UNREGISTERED</text><text fill="#eeeeee" stroke="none" font-family="Arial" font-size="24px" font-style="normal" font-weight="normal" text-decoration="none" x="0" y="90">UNREGISTERED</text><text fill="#eeeeee" stroke="none" font-family="Arial" font-size="24px" font-style="normal" font-weight="normal" text-decoration="none" x="0" y="120">UNREGISTERED</text><text fill="#eeeeee" stroke="none" font-family="Arial" font-size="24px" font-style="normal" font-weight="normal" text-decoration="none" x="0" y="150">UNREGISTERED</text><text fill="#eeeeee" stroke="none" font-family="Arial" font-size="24px" font-style="normal" font-weight="normal" text-decoration="none" x="0" y="180">UNREGISTERED</text><text fill="#eeeeee" stroke="none" font-family="Arial" font-size="24px" font-style="normal" font-weight="normal" text-decoration="none" x="0" y="210">UNREGISTERED</text><text fill="#eeeeee" stroke="none" font-family="Arial" font-size="24px" font-style="normal" font-weight="normal" text-decoration="none" x="0" y="240">UNREGISTERED</text><text fill="#eeeeee" stroke="none" font-family="Arial" font-size="24px" font-style="normal" font-weight="normal" text-decoration="none" x="0" y="270">UNREGISTERED</text><text fill="#eeeeee" stroke="none" font-family="Arial" font-size="24px" font-style="normal" font-weight="normal" text-decoration="none" x="0" y="300">UNREGISTERED</text><text fill="#eeeeee" stroke="none" font-family="Arial" font-size="24px" font-style="normal" font-weight="normal" text-decoration="none" x="0" y="330">UNREGISTERED</text><text fill="#eeeeee" stroke="none" font-family="Arial" font-size="24px" font-style="normal" font-weight="normal" text-decoration="none" x="0" y="360">UNREGISTERED</text><text fill="#eeeeee" stroke="none" font-family="Arial" font-size="24px" font-style="normal" font-weight="normal" text-decoration="none" x="0" y="390">UNREGISTERED</text><text fill="#eeeeee" stroke="none" font-family="Arial" font-size="24px" font-style="normal" font-weight="normal" text-decoration="none" x="0" y="420">UNREGISTERED</text><text fill="#eeeeee" stroke="none" font-family="Arial" font-size="24px" font-style="normal" font-weight="normal" text-decoration="none" x="0" y="450">UNREGISTERED</text><text fill="#eeeeee" stroke="none" font-family="Arial" font-size="24px" font-style="normal" font-weight="normal" text-decoration="none" x="0" y="480">UNREGISTERED</text><text fill="#eeeeee" stroke="none" font-family="Arial" font-size="24px" font-style="normal" font-weight="normal" text-decoration="none" x="0" y="510">UNREGISTERED</text><text fill="#eeeeee" stroke="none" font-family="Arial" font-size="24px" font-style="normal" font-weight="normal" text-decoration="none" x="0" y="540">UNREGISTERED</text><text fill="#eeeeee" stroke="none" font-family="Arial" font-size="24px" font-style="normal" font-weight="normal" text-decoration="none" x="0" y="570">UNREGISTERED</text><text fill="#eeeeee" stroke="none" font-family="Arial" font-size="24px" font-style="normal" font-weight="normal" text-decoration="none" x="200" y="0">UNREGISTERED</text><text fill="#eeeeee" stroke="none" font-family="Arial" font-size="24px" font-style="normal" font-weight="normal" text-decoration="none" x="200" y="30">UNREGISTERED</text><text fill="#eeeeee" stroke="none" font-family="Arial" font-size="24px" font-style="normal" font-weight="normal" text-decoration="none" x="200" y="60">UNREGISTERED</text><text fill="#eeeeee" stroke="none" font-family="Arial" font-size="24px" font-style="normal" font-weight="normal" text-decoration="none" x="200" y="90">UNREGISTERED</text><text fill="#eeeeee" stroke="none" font-family="Arial" font-size="24px" font-style="normal" font-weight="normal" text-decoration="none" x="200" y="120">UNREGISTERED</text><text fill="#eeeeee" stroke="none" font-family="Arial" font-size="24px" font-style="normal" font-weight="normal" text-decoration="none" x="200" y="150">UNREGISTERED</text><text fill="#eeeeee" stroke="none" font-family="Arial" font-size="24px" font-style="normal" font-weight="normal" text-decoration="none" x="200" y="180">UNREGISTERED</text><text fill="#eeeeee" stroke="none" font-family="Arial" font-size="24px" font-style="normal" font-weight="normal" text-decoration="none" x="200" y="210">UNREGISTERED</text><text fill="#eeeeee" stroke="none" font-family="Arial" font-size="24px" font-style="normal" font-weight="normal" text-decoration="none" x="200" y="240">UNREGISTERED</text><text fill="#eeeeee" stroke="none" font-family="Arial" font-size="24px" font-style="normal" font-weight="normal" text-decoration="none" x="200" y="270">UNREGISTERED</text><text fill="#eeeeee" stroke="none" font-family="Arial" font-size="24px" font-style="normal" font-weight="normal" text-decoration="none" x="200" y="300">UNREGISTERED</text><text fill="#eeeeee" stroke="none" font-family="Arial" font-size="24px" font-style="normal" font-weight="normal" text-decoration="none" x="200" y="330">UNREGISTERED</text><text fill="#eeeeee" stroke="none" font-family="Arial" font-size="24px" font-style="normal" font-weight="normal" text-decoration="none" x="200" y="360">UNREGISTERED</text><text fill="#eeeeee" stroke="none" font-family="Arial" font-size="24px" font-style="normal" font-weight="normal" text-decoration="none" x="200" y="390">UNREGISTERED</text><text fill="#eeeeee" stroke="none" font-family="Arial" font-size="24px" font-style="normal" font-weight="normal" text-decoration="none" x="200" y="420">UNREGISTERED</text><text fill="#eeeeee" stroke="none" font-family="Arial" font-size="24px" font-style="normal" font-weight="normal" text-decoration="none" x="200" y="450">UNREGISTERED</text><text fill="#eeeeee" stroke="none" font-family="Arial" font-size="24px" font-style="normal" font-weight="normal" text-decoration="none" x="200" y="480">UNREGISTERED</text><text fill="#eeeeee" stroke="none" font-family="Arial" font-size="24px" font-style="normal" font-weight="normal" text-decoration="none" x="200" y="510">UNREGISTERED</text><text fill="#eeeeee" stroke="none" font-family="Arial" font-size="24px" font-style="normal" font-weight="normal" text-decoration="none" x="200" y="540">UNREGISTERED</text><text fill="#eeeeee" stroke="none" font-family="Arial" font-size="24px" font-style="normal" font-weight="normal" text-decoration="none" x="200" y="570">UNREGISTERED</text><text fill="#eeeeee" stroke="none" font-family="Arial" font-size="24px" font-style="normal" font-weight="normal" text-decoration="none" x="400" y="0">UNREGISTERED</text><text fill="#eeeeee" stroke="none" font-family="Arial" font-size="24px" font-style="normal" font-weight="normal" text-decoration="none" x="400" y="30">UNREGISTERED</text><text fill="#eeeeee" stroke="none" font-family="Arial" font-size="24px" font-style="normal" font-weight="normal" text-decoration="none" x="400" y="60">UNREGISTERED</text><text fill="#eeeeee" stroke="none" font-family="Arial" font-size="24px" font-style="normal" font-weight="normal" text-decoration="none" x="400" y="90">UNREGISTERED</text><text fill="#eeeeee" stroke="none" font-family="Arial" font-size="24px" font-style="normal" font-weight="normal" text-decoration="none" x="400" y="120">UNREGISTERED</text><text fill="#eeeeee" stroke="none" font-family="Arial" font-size="24px" font-style="normal" font-weight="normal" text-decoration="none" x="400" y="150">UNREGISTERED</text><text fill="#eeeeee" stroke="none" font-family="Arial" font-size="24px" font-style="normal" font-weight="normal" text-decoration="none" x="400" y="180">UNREGISTERED</text><text fill="#eeeeee" stroke="none" font-family="Arial" font-size="24px" font-style="normal" font-weight="normal" text-decoration="none" x="400" y="210">UNREGISTERED</text><text fill="#eeeeee" stroke="none" font-family="Arial" font-size="24px" font-style="normal" font-weight="normal" text-decoration="none" x="400" y="240">UNREGISTERED</text><text fill="#eeeeee" stroke="none" font-family="Arial" font-size="24px" font-style="normal" font-weight="normal" text-decoration="none" x="400" y="270">UNREGISTERED</text><text fill="#eeeeee" stroke="none" font-family="Arial" font-size="24px" font-style="normal" font-weight="normal" text-decoration="none" x="400" y="300">UNREGISTERED</text><text fill="#eeeeee" stroke="none" font-family="Arial" font-size="24px" font-style="normal" font-weight="normal" text-decoration="none" x="400" y="330">UNREGISTERED</text><text fill="#eeeeee" stroke="none" font-family="Arial" font-size="24px" font-style="normal" font-weight="normal" text-decoration="none" x="400" y="360">UNREGISTERED</text><text fill="#eeeeee" stroke="none" font-family="Arial" font-size="24px" font-style="normal" font-weight="normal" text-decoration="none" x="400" y="390">UNREGISTERED</text><text fill="#eeeeee" stroke="none" font-family="Arial" font-size="24px" font-style="normal" font-weight="normal" text-decoration="none" x="400" y="420">UNREGISTERED</text><text fill="#eeeeee" stroke="none" font-family="Arial" font-size="24px" font-style="normal" font-weight="normal" text-decoration="none" x="400" y="450">UNREGISTERED</text><text fill="#eeeeee" stroke="none" font-family="Arial" font-size="24px" font-style="normal" font-weight="normal" text-decoration="none" x="400" y="480">UNREGISTERED</text><text fill="#eeeeee" stroke="none" font-family="Arial" font-size="24px" font-style="normal" font-weight="normal" text-decoration="none" x="400" y="510">UNREGISTERED</text><text fill="#eeeeee" stroke="none" font-family="Arial" font-size="24px" font-style="normal" font-weight="normal" text-decoration="none" x="400" y="540">UNREGISTERED</text><text fill="#eeeeee" stroke="none" font-family="Arial" font-size="24px" font-style="normal" font-weight="normal" text-decoration="none" x="400" y="570">UNREGISTERED</text><text fill="#eeeeee" stroke="none" font-family="Arial" font-size="24px" font-style="normal" font-weight="normal" text-decoration="none" x="600" y="0">UNREGISTERED</text><text fill="#eeeeee" stroke="none" font-family="Arial" font-size="24px" font-style="normal" font-weight="normal" text-decoration="none" x="600" y="30">UNREGISTERED</text><text fill="#eeeeee" stroke="none" font-family="Arial" font-size="24px" font-style="normal" font-weight="normal" text-decoration="none" x="600" y="60">UNREGISTERED</text><text fill="#eeeeee" stroke="none" font-family="Arial" font-size="24px" font-style="normal" font-weight="normal" text-decoration="none" x="600" y="90">UNREGISTERED</text><text fill="#eeeeee" stroke="none" font-family="Arial" font-size="24px" font-style="normal" font-weight="normal" text-decoration="none" x="600" y="120">UNREGISTERED</text><text fill="#eeeeee" stroke="none" font-family="Arial" font-size="24px" font-style="normal" font-weight="normal" text-decoration="none" x="600" y="150">UNREGISTERED</text><text fill="#eeeeee" stroke="none" font-family="Arial" font-size="24px" font-style="normal" font-weight="normal" text-decoration="none" x="600" y="180">UNREGISTERED</text><text fill="#eeeeee" stroke="none" font-family="Arial" font-size="24px" font-style="normal" font-weight="normal" text-decoration="none" x="600" y="210">UNREGISTERED</text><text fill="#eeeeee" stroke="none" font-family="Arial" font-size="24px" font-style="normal" font-weight="normal" text-decoration="none" x="600" y="240">UNREGISTERED</text><text fill="#eeeeee" stroke="none" font-family="Arial" font-size="24px" font-style="normal" font-weight="normal" text-decoration="none" x="600" y="270">UNREGISTERED</text><text fill="#eeeeee" stroke="none" font-family="Arial" font-size="24px" font-style="normal" font-weight="normal" text-decoration="none" x="600" y="300">UNREGISTERED</text><text fill="#eeeeee" stroke="none" font-family="Arial" font-size="24px" font-style="normal" font-weight="normal" text-decoration="none" x="600" y="330">UNREGISTERED</text><text fill="#eeeeee" stroke="none" font-family="Arial" font-size="24px" font-style="normal" font-weight="normal" text-decoration="none" x="600" y="360">UNREGISTERED</text><text fill="#eeeeee" stroke="none" font-family="Arial" font-size="24px" font-style="normal" font-weight="normal" text-decoration="none" x="600" y="390">UNREGISTERED</text><text fill="#eeeeee" stroke="none" font-family="Arial" font-size="24px" font-style="normal" font-weight="normal" text-decoration="none" x="600" y="420">UNREGISTERED</text><text fill="#eeeeee" stroke="none" font-family="Arial" font-size="24px" font-style="normal" font-weight="normal" text-decoration="none" x="600" y="450">UNREGISTERED</text><text fill="#eeeeee" stroke="none" font-family="Arial" font-size="24px" font-style="normal" font-weight="normal" text-decoration="none" x="600" y="480">UNREGISTERED</text><text fill="#eeeeee" stroke="none" font-family="Arial" font-size="24px" font-style="normal" font-weight="normal" text-decoration="none" x="600" y="510">UNREGISTERED</text><text fill="#eeeeee" stroke="none" font-family="Arial" font-size="24px" font-style="normal" font-weight="normal" text-decoration="none" x="600" y="540">UNREGISTERED</text><text fill="#eeeeee" stroke="none" font-family="Arial" font-size="24px" font-style="normal" font-weight="normal" text-decoration="none" x="600" y="570">UNREGISTERED</text><text fill="#eeeeee" stroke="none" font-family="Arial" font-size="24px" font-style="normal" font-weight="normal" text-decoration="none" x="800" y="0">UNREGISTERED</text><text fill="#eeeeee" stroke="none" font-family="Arial" font-size="24px" font-style="normal" font-weight="normal" text-decoration="none" x="800" y="30">UNREGISTERED</text><text fill="#eeeeee" stroke="none" font-family="Arial" font-size="24px" font-style="normal" font-weight="normal" text-decoration="none" x="800" y="60">UNREGISTERED</text><text fill="#eeeeee" stroke="none" font-family="Arial" font-size="24px" font-style="normal" font-weight="normal" text-decoration="none" x="800" y="90">UNREGISTERED</text><text fill="#eeeeee" stroke="none" font-family="Arial" font-size="24px" font-style="normal" font-weight="normal" text-decoration="none" x="800" y="120">UNREGISTERED</text><text fill="#eeeeee" stroke="none" font-family="Arial" font-size="24px" font-style="normal" font-weight="normal" text-decoration="none" x="800" y="150">UNREGISTERED</text><text fill="#eeeeee" stroke="none" font-family="Arial" font-size="24px" font-style="normal" font-weight="normal" text-decoration="none" x="800" y="180">UNREGISTERED</text><text fill="#eeeeee" stroke="none" font-family="Arial" font-size="24px" font-style="normal" font-weight="normal" text-decoration="none" x="800" y="210">UNREGISTERED</text><text fill="#eeeeee" stroke="none" font-family="Arial" font-size="24px" font-style="normal" font-weight="normal" text-decoration="none" x="800" y="240">UNREGISTERED</text><text fill="#eeeeee" stroke="none" font-family="Arial" font-size="24px" font-style="normal" font-weight="normal" text-decoration="none" x="800" y="270">UNREGISTERED</text><text fill="#eeeeee" stroke="none" font-family="Arial" font-size="24px" font-style="normal" font-weight="normal" text-decoration="none" x="800" y="300">UNREGISTERED</text><text fill="#eeeeee" stroke="none" font-family="Arial" font-size="24px" font-style="normal" font-weight="normal" text-decoration="none" x="800" y="330">UNREGISTERED</text><text fill="#eeeeee" stroke="none" font-family="Arial" font-size="24px" font-style="normal" font-weight="normal" text-decoration="none" x="800" y="360">UNREGISTERED</text><text fill="#eeeeee" stroke="none" font-family="Arial" font-size="24px" font-style="normal" font-weight="normal" text-decoration="none" x="800" y="390">UNREGISTERED</text><text fill="#eeeeee" stroke="none" font-family="Arial" font-size="24px" font-style="normal" font-weight="normal" text-decoration="none" x="800" y="420">UNREGISTERED</text><text fill="#eeeeee" stroke="none" font-family="Arial" font-size="24px" font-style="normal" font-weight="normal" text-decoration="none" x="800" y="450">UNREGISTERED</text><text fill="#eeeeee" stroke="none" font-family="Arial" font-size="24px" font-style="normal" font-weight="normal" text-decoration="none" x="800" y="480">UNREGISTERED</text><text fill="#eeeeee" stroke="none" font-family="Arial" font-size="24px" font-style="normal" font-weight="normal" text-decoration="none" x="800" y="510">UNREGISTERED</text><text fill="#eeeeee" stroke="none" font-family="Arial" font-size="24px" font-style="normal" font-weight="normal" text-decoration="none" x="800" y="540">UNREGISTERED</text><text fill="#eeeeee" stroke="none" font-family="Arial" font-size="24px" font-style="normal" font-weight="normal" text-decoration="none" x="800" y="570">UNREGISTERED</text><g transform="translate(-198,-54) scale(1,1)"><path fill="#008400" stroke="none" d="M 225.5 72 L 262.5 72 Q 280 72 280 89.5 L 280 88.5 Q 280 106 262.5 106 L 225.5 106 Q 208 106 208 88.5 L 208 89.5 Q 208 72 225.5 72 Z"/></g><g transform="translate(-198,-54) scale(1,1)"><path fill="none" stroke="#000000" d="M 225.5 72 L 262.5 72 Q 280 72 280 89.5 L 280 88.5 Q 280 106 262.5 106 L 225.5 106 Q 208 106 208 88.5 L 208 89.5 Q 208 72 225.5 72 Z" stroke-miterlimit="10"/></g><g transform="translate(-198,-54) scale(1,1)"><g><path fill="none" stroke="none"/><text fill="#000000" stroke="none" font-family="Arial" font-size="15px" font-style="normal" font-weight="normal" text-decoration="none" x="228.161376953125" y="96.5">Start</text></g></g><g transform="translate(-198,-54) scale(1,1)"><rect fill="#568eff" stroke="none" x="408" y="72" width="143" height="49"/></g><g transform="translate(-198,-54) scale(1,1)"><path fill="none" stroke="#000000" d="M 408 72 L 551 72 L 551 121 L 408 121 L 408 72 Z Z" stroke-miterlimit="10"/></g><g transform="translate(-198,-54) scale(1,1)"><g><path fill="none" stroke="none"/><text fill="#000000" stroke="none" font-family="Arial" font-size="15px" font-style="normal" font-weight="normal" text-decoration="none" x="430.72802734375" y="96.5">click on cancel</text><text fill="#000000" stroke="none" font-family="Arial" font-size="15px" font-style="normal" font-weight="normal" text-decoration="none" x="429.061767578125" y="111.5">reservation link</text></g></g><g transform="translate(-198,-54) scale(1,1)"><path fill="#d63500" stroke="none" d="M 705 64 L 852 64 L 823 103 L 676 103 L 705 64"/></g><g transform="translate(-198,-54) scale(1,1)"><path fill="none" stroke="#000000" d="M 705 64 L 852 64 L 823 103 L 676 103 L 705 64 L 705 64" stroke-miterlimit="10"/></g><g transform="translate(-198,-54) scale(1,1)"><g><path fill="none" stroke="none"/><text fill="#000000" stroke="none" font-family="Arial" font-size="15px" font-style="normal" font-weight="normal" text-decoration="none" x="716.890625" y="88.5">reservation_id</text></g></g><g transform="translate(-198,-54) scale(1,1)"><rect fill="#568eff" stroke="none" x="408" y="192" width="143" height="49"/></g><g transform="translate(-198,-54) scale(1,1)"><path fill="none" stroke="#000000" d="M 408 192 L 551 192 L 551 241 L 408 241 L 408 192 Z Z" stroke-miterlimit="10"/></g><g transform="translate(-198,-54) scale(1,1)"><g><path fill="none" stroke="none"/><text fill="#000000" stroke="none" font-family="Arial" font-size="15px" font-style="normal" font-weight="normal" text-decoration="none" x="432.390625" y="216.5">display cancel</text><text fill="#000000" stroke="none" font-family="Arial" font-size="15px" font-style="normal" font-weight="normal" text-decoration="none" x="418.62841796875" y="231.5">acceptation modal</text></g></g><g transform="translate(-198,-54) scale(1,1)"><path fill="#ffff00" stroke="none" d="M 400 343 L 476 303 L 552 343 L 476 383 L 400 343"/></g><g transform="translate(-198,-54) scale(1,1)"><path fill="none" stroke="#000000" d="M 400 343 L 476 303 L 552 343 L 476 383 L 400 343 L 400 343" stroke-miterlimit="10"/></g><g transform="translate(-198,-54) scale(1,1)"><g><path fill="none" stroke="none"/><text fill="#000000" stroke="none" font-family="Arial" font-size="15px" font-style="normal" font-weight="normal" text-decoration="none" x="438.474365234375" y="350.5">Accepted ?</text></g></g><g transform="translate(-198,-54) scale(1,1)"><rect fill="#568eff" stroke="none" x="408" y="464" width="143" height="49"/></g><g transform="translate(-198,-54) scale(1,1)"><path fill="none" stroke="#000000" d="M 408 464 L 551 464 L 551 513 L 408 513 L 408 464 Z Z" stroke-miterlimit="10"/></g><g transform="translate(-198,-54) scale(1,1)"><g><path fill="none" stroke="none"/><text fill="#000000" stroke="none" font-family="Arial" font-size="15px" font-style="normal" font-weight="normal" text-decoration="none" x="438.22802734375" y="488.5">close cancel</text><text fill="#000000" stroke="none" font-family="Arial" font-size="15px" font-style="normal" font-weight="normal" text-decoration="none" x="418.62841796875" y="503.5">acceptation modal</text></g></g><g transform="translate(-198,-54) scale(1,1)"><path fill="#ff0000" stroke="none" d="M 449.5 584 L 512.69677734375 584 Q 530.19677734375 584 530.19677734375 601.5 L 530.19677734375 600.5 Q 530.19677734375 618 512.69677734375 618 L 449.5 618 Q 432 618 432 600.5 L 432 601.5 Q 432 584 449.5 584 Z"/></g><g transform="translate(-198,-54) scale(1,1)"><path fill="none" stroke="#000000" d="M 449.5 584 L 512.69677734375 584 Q 530.19677734375 584 530.19677734375 601.5 L 530.19677734375 600.5 Q 530.19677734375 618 512.69677734375 618 L 449.5 618 Q 432 618 432 600.5 L 432 601.5 Q 432 584 449.5 584 Z" stroke-miterlimit="10"/></g><g transform="translate(-198,-54) scale(1,1)"><g><path fill="none" stroke="none"/><text fill="#000000" stroke="none" font-family="Arial" font-size="15px" font-style="normal" font-weight="normal" text-decoration="none" x="467.753662109375" y="608.5">End</text></g></g><g transform="translate(-198,-54) scale(1,1)"><rect fill="#568eff" stroke="none" x="683" y="311" width="152" height="64"/></g><g transform="translate(-198,-54) scale(1,1)"><path fill="none" stroke="#000000" d="M 683 311 L 835 311 L 835 375 L 683 375 L 683 311 Z Z" stroke-miterlimit="10"/></g><g transform="translate(-198,-54) scale(1,1)"><g><path fill="none" stroke="none"/><text fill="#000000" stroke="none" font-family="Arial" font-size="15px" font-style="normal" font-weight="normal" text-decoration="none" x="701.047119140625" y="335.5">Post data to back</text><text fill="#000000" stroke="none" font-family="Arial" font-size="15px" font-style="normal" font-weight="normal" text-decoration="none" x="713.556884765625" y="350.5">end controller</text><text fill="#000000" stroke="none" font-family="Arial" font-size="15px" font-style="normal" font-weight="normal" text-decoration="none" x="698.1357421875" y="365.5">cancel reservation</text></g></g><g transform="translate(-198,-54) scale(1,1)"><path fill="none" stroke="#000000" d="M 280 94 L 408 94" stroke-miterlimit="10"/></g><g transform="translate(-198,-54) scale(1,1)"><path fill="#000000" stroke="none" d="M 397.83732514237585 98.20951775601598 L 408 94 L 397.83732514237585 89.79048224398402"/></g><g transform="translate(-198,-54) scale(1,1)"><path fill="none" stroke="#000000" d="M 397.83732514237585 98.20951775601598 L 408 94 L 397.83732514237585 89.79048224398402 L 397.83732514237585 98.20951775601598" stroke-miterlimit="10"/></g><g transform="translate(-198,-54) scale(1,1)"><path fill="none" stroke="#000000" d="M 480 121 L 480 192" stroke-miterlimit="10"/></g><g transform="translate(-198,-54) scale(1,1)"><path fill="#000000" stroke="none" d="M 475.790482243984 181.83732514237585 L 480 192 L 484.209517756016 181.83732514237585"/></g><g transform="translate(-198,-54) scale(1,1)"><path fill="none" stroke="#000000" d="M 475.790482243984 181.83732514237585 L 480 192 L 484.209517756016 181.83732514237585 L 475.790482243984 181.83732514237585" stroke-miterlimit="10"/></g><g transform="translate(-198,-54) scale(1,1)"><path fill="none" stroke="#000000" d="M 755 103 L 755 311" stroke-miterlimit="10"/></g><g transform="translate(-198,-54) scale(1,1)"><path fill="#000000" stroke="none" d="M 750.790482243984 300.83732514237585 L 755 311 L 759.209517756016 300.83732514237585"/></g><g transform="translate(-198,-54) scale(1,1)"><path fill="none" stroke="#000000" d="M 750.790482243984 300.83732514237585 L 755 311 L 759.209517756016 300.83732514237585 L 750.790482243984 300.83732514237585" stroke-miterlimit="10"/></g><g transform="translate(-198,-54) scale(1,1)"><path fill="none" stroke="#000000" d="M 478 241 L 478 303" stroke-miterlimit="10"/></g><g transform="translate(-198,-54) scale(1,1)"><path fill="#000000" stroke="none" d="M 473.790482243984 292.83732514237585 L 478 303 L 482.209517756016 292.83732514237585"/></g><g transform="translate(-198,-54) scale(1,1)"><path fill="none" stroke="#000000" d="M 473.790482243984 292.83732514237585 L 478 303 L 482.209517756016 292.83732514237585 L 473.790482243984 292.83732514237585" stroke-miterlimit="10"/></g><g transform="translate(-198,-54) scale(1,1)"><path fill="none" stroke="#00ad00" d="M 552 350 L 683 350" stroke-miterlimit="10"/></g><g transform="translate(-198,-54) scale(1,1)"><path fill="#00ad00" stroke="none" d="M 672.8373251423759 354.209517756016 L 683 350 L 672.8373251423758 345.790482243984"/></g><g transform="translate(-198,-54) scale(1,1)"><path fill="none" stroke="#00ad00" d="M 672.8373251423759 354.209517756016 L 683 350 L 672.8373251423758 345.790482243984 L 672.8373251423759 354.209517756016" stroke-miterlimit="10"/></g><g transform="translate(-198,-54) scale(1,1)"><g><path fill="none" stroke="none"/><text fill="#00ad00" stroke="none" font-family="Arial" font-size="15px" font-style="normal" font-weight="normal" text-decoration="none" x="604.5" y="342.5">Yes</text></g></g><g transform="translate(-198,-54) scale(1,1)"><path fill="none" stroke="#ff3f00" d="M 477 383 L 477 464" stroke-miterlimit="10"/></g><g transform="translate(-198,-54) scale(1,1)"><path fill="#ff3f00" stroke="none" d="M 472.790482243984 453.83732514237585 L 477 464 L 481.209517756016 453.83732514237585"/></g><g transform="translate(-198,-54) scale(1,1)"><path fill="none" stroke="#ff3f00" d="M 472.790482243984 453.83732514237585 L 477 464 L 481.209517756016 453.83732514237585 L 472.790482243984 453.83732514237585" stroke-miterlimit="10"/></g><g transform="translate(-198,-54) scale(1,1)"><g><path fill="none" stroke="none"/><text fill="#ff3f00" stroke="none" font-family="Arial" font-size="15px" font-style="normal" font-weight="normal" text-decoration="none" x="481.5" y="429.5">No</text></g></g><g transform="translate(-198,-54) scale(1,1)"><path fill="none" stroke="#000000" d="M 479 513 L 479 584" stroke-miterlimit="10"/></g><g transform="translate(-198,-54) scale(1,1)"><path fill="#000000" stroke="none" d="M 474.790482243984 573.8373251423759 L 479 584 L 483.209517756016 573.8373251423759"/></g><g transform="translate(-198,-54) scale(1,1)"><path fill="none" stroke="#000000" d="M 474.790482243984 573.8373251423759 L 479 584 L 483.209517756016 573.8373251423759 L 474.790482243984 573.8373251423759" stroke-miterlimit="10"/></g><g transform="translate(-198,-54) scale(1,1)"><path fill="none" stroke="#000000" d="M 752 375 L 752 592 M 752 592 A 8 8 0 0 1 744 600 L 530 600" stroke-miterlimit="10"/></g><g transform="translate(-198,-54) scale(1,1)"><path fill="#000000" stroke="none" d="M 540.1626748576241 595.790482243984 L 530 600 L 540.1626748576241 604.209517756016"/></g><g transform="translate(-198,-54) scale(1,1)"><path fill="none" stroke="#000000" d="M 540.1626748576241 595.790482243984 L 530 600 L 540.1626748576241 604.209517756016 L 540.1626748576241 595.790482243984" stroke-miterlimit="10"/></g><g transform="translate(-198,-54) scale(1,1)"><path fill="#d63500" stroke="none" d="M 957 64 L 1104 64 L 1075 103 L 928 103 L 957 64"/></g><g transform="translate(-198,-54) scale(1,1)"><path fill="none" stroke="#000000" d="M 957 64 L 1104 64 L 1075 103 L 928 103 L 957 64 L 957 64" stroke-miterlimit="10"/></g><g transform="translate(-198,-54) scale(1,1)"><g><path fill="none" stroke="none"/><text fill="#000000" stroke="none" font-family="Arial" font-size="15px" font-style="normal" font-weight="normal" text-decoration="none" x="989.72802734375" y="88.5">book_id</text></g></g><g transform="translate(-198,-54) scale(1,1)"><path fill="none" stroke="#000000" d="M 996 103 L 996 336 M 996 336 A 8 8 0 0 1 988 344 L 835 344" stroke-miterlimit="10"/></g><g transform="translate(-198,-54) scale(1,1)"><path fill="#000000" stroke="none" d="M 845.1626748576241 339.790482243984 L 835 344 L 845.1626748576241 348.209517756016"/></g><g transform="translate(-198,-54) scale(1,1)"><path fill="none" stroke="#000000" d="M 845.1626748576241 339.790482243984 L 835 344 L 845.1626748576241 348.209517756016 L 845.1626748576241 339.790482243984" stroke-miterlimit="10"/></g></g></svg>