<svg version="1.1" xmlns="http://www.w3.org/2000/svg" xmlns:xlink="http://www.w3.org/1999/xlink" width="747.5439453125" height="422"><defs/><g><text fill="#eeeeee" stroke="none" font-family="Arial" font-size="24px" font-style="normal" font-weight="normal" text-decoration="none" x="0" y="0">UNREGISTERED</text><text fill="#eeeeee" stroke="none" font-family="Arial" font-size="24px" font-style="normal" font-weight="normal" text-decoration="none" x="0" y="30">UNREGISTERED</text><text fill="#eeeeee" stroke="none" font-family="Arial" font-size="24px" font-style="normal" font-weight="normal" text-decoration="none" x="0" y="60">UNREGISTERED</text><text fill="#eeeeee" stroke="none" font-family="Arial" font-size="24px" font-style="normal" font-weight="normal" text-decoration="none" x="0" y="90">UNREGISTERED</text><text fill="#eeeeee" stroke="none" font-family="Arial" font-size="24px" font-style="normal" font-weight="normal" text-decoration="none" x="0" y="120">UNREGISTERED</text><text fill="#eeeeee" stroke="none" font-family="Arial" font-size="24px" font-style="normal" font-weight="normal" text-decoration="none" x="0" y="150">UNREGISTERED</text><text fill="#eeeeee" stroke="none" font-family="Arial" font-size="24px" font-style="normal" font-weight="normal" text-decoration="none" x="0" y="180">UNREGISTERED</text><text fill="#eeeeee" stroke="none" font-family="Arial" font-size="24px" font-style="normal" font-weight="normal" text-decoration="none" x="0" y="210">UNREGISTERED</text><text fill="#eeeeee" stroke="none" font-family="Arial" font-size="24px" font-style="normal" font-weight="normal" text-decoration="none" x="0" y="240">UNREGISTERED</text><text fill="#eeeeee" stroke="none" font-family="Arial" font-size="24px" font-style="normal" font-weight="normal" text-decoration="none" x="0" y="270">UNREGISTERED</text><text fill="#eeeeee" stroke="none" font-family="Arial" font-size="24px" font-style="normal" font-weight="normal" text-decoration="none" x="0" y="300">UNREGISTERED</text><text fill="#eeeeee" stroke="none" font-family="Arial" font-size="24px" font-style="normal" font-weight="normal" text-decoration="none" x="0" y="330">UNREGISTERED</text><text fill="#eeeeee" stroke="none" font-family="Arial" font-size="24px" font-style="normal" font-weight="normal" text-decoration="none" x="0" y="360">UNREGISTERED</text><text fill="#eeeeee" stroke="none" font-family="Arial" font-size="24px" font-style="normal" font-weight="normal" text-decoration="none" x="0" y="390">UNREGISTERED</text><text fill="#eeeeee" stroke="none" font-family="Arial" font-size="24px" font-style="normal" font-weight="normal" text-decoration="none" x="0" y="420">UNREGISTERED</text><text fill="#eeeeee" stroke="none" font-family="Arial" font-size="24px" font-style="normal" font-weight="normal" text-decoration="none" x="200" y="0">UNREGISTERED</text><text fill="#eeeeee" stroke="none" font-family="Arial" font-size="24px" font-style="normal" font-weight="normal" text-decoration="none" x="200" y="30">UNREGISTERED</text><text fill="#eeeeee" stroke="none" font-family="Arial" font-size="24px" font-style="normal" font-weight="normal" text-decoration="none" x="200" y="60">UNREGISTERED</text><text fill="#eeeeee" stroke="none" font-family="Arial" font-size="24px" font-style="normal" font-weight="normal" text-decoration="none" x="200" y="90">UNREGISTERED</text><text fill="#eeeeee" stroke="none" font-family="Arial" font-size="24px" font-style="normal" font-weight="normal" text-decoration="none" x="200" y="120">UNREGISTERED</text><text fill="#eeeeee" stroke="none" font-family="Arial" font-size="24px" font-style="normal" font-weight="normal" text-decoration="none" x="200" y="150">UNREGISTERED</text><text fill="#eeeeee" stroke="none" font-family="Arial" font-size="24px" font-style="normal" font-weight="normal" text-decoration="none" x="200" y="180">UNREGISTERED</text><text fill="#eeeeee" stroke="none" font-family="Arial" font-size="24px" font-style="normal" font-weight="normal" text-decoration="none" x="200" y="210">UNREGISTERED</text><text fill="#eeeeee" stroke="none" font-family="Arial" font-size="24px" font-style="normal" font-weight="normal" text-decoration="none" x="200" y="240">UNREGISTERED</text><text fill="#eeeeee" stroke="none" font-family="Arial" font-size="24px" font-style="normal" font-weight="normal" text-decoration="none" x="200" y="270">UNREGISTERED</text><text fill="#eeeeee" stroke="none" font-family="Arial" font-size="24px" font-style="normal" font-weight="normal" text-decoration="none" x="200" y="300">UNREGISTERED</text><text fill="#eeeeee" stroke="none" font-family="Arial" font-size="24px" font-style="normal" font-weight="normal" text-decoration="none" x="200" y="330">UNREGISTERED</text><text fill="#eeeeee" stroke="none" font-family="Arial" font-size="24px" font-style="normal" font-weight="normal" text-decoration="none" x="200" y="360">UNREGISTERED</text><text fill="#eeeeee" stroke="none" font-family="Arial" font-size="24px" font-style="normal" font-weight="normal" text-decoration="none" x="200" y="390">UNREGISTERED</text><text fill="#eeeeee" stroke="none" font-family="Arial" font-size="24px" font-style="normal" font-weight="normal" text-decoration="none" x="200" y="420">UNREGISTERED</text><text fill="#eeeeee" stroke="none" font-family="Arial" font-size="24px" font-style="normal" font-weight="normal" text-decoration="none" x="400" y="0">UNREGISTERED</text><text fill="#eeeeee" stroke="none" font-family="Arial" font-size="24px" font-style="normal" font-weight="normal" text-decoration="none" x="400" y="30">UNREGISTERED</text><text fill="#eeeeee" stroke="none" font-family="Arial" font-size="24px" font-style="normal" font-weight="normal" text-decoration="none" x="400" y="60">UNREGISTERED</text><text fill="#eeeeee" stroke="none" font-family="Arial" font-size="24px" font-style="normal" font-weight="normal" text-decoration="none" x="400" y="90">UNREGISTERED</text><text fill="#eeeeee" stroke="none" font-family="Arial" font-size="24px" font-style="normal" font-weight="normal" text-decoration="none" x="400" y="120">UNREGISTERED</text><text fill="#eeeeee" stroke="none" font-family="Arial" font-size="24px" font-style="normal" font-weight="normal" text-decoration="none" x="400" y="150">UNREGISTERED</text><text fill="#eeeeee" stroke="none" font-family="Arial" font-size="24px" font-style="normal" font-weight="normal" text-decoration="none" x="400" y="180">UNREGISTERED</text><text fill="#eeeeee" stroke="none" font-family="Arial" font-size="24px" font-style="normal" font-weight="normal" text-decoration="none" x="400" y="210">UNREGISTERED</text><text fill="#eeeeee" stroke="none" font-family="Arial" font-size="24px" font-style="normal" font-weight="normal" text-decoration="none" x="400" y="240">UNREGISTERED</text><text fill="#eeeeee" stroke="none" font-family="Arial" font-size="24px" font-style="normal" font-weight="normal" text-decoration="none" x="400" y="270">UNREGISTERED</text><text fill="#eeeeee" stroke="none" font-family="Arial" font-size="24px" font-style="normal" font-weight="normal" text-decoration="none" x="400" y="300">UNREGISTERED</text><text fill="#eeeeee" stroke="none" font-family="Arial" font-size="24px" font-style="normal" font-weight="normal" text-decoration="none" x="400" y="330">UNREGISTERED</text><text fill="#eeeeee" stroke="none" font-family="Arial" font-size="24px" font-style="normal" font-weight="normal" text-decoration="none" x="400" y="360">UNREGISTERED</text><text fill="#eeeeee" stroke="none" font-family="Arial" font-size="24px" font-style="normal" font-weight="normal" text-decoration="none" x="400" y="390">UNREGISTERED</text><text fill="#eeeeee" stroke="none" font-family="Arial" font-size="24px" font-style="normal" font-weight="normal" text-decoration="none" x="400" y="420">UNREGISTERED</text><text fill="#eeeeee" stroke="none" font-family="Arial" font-size="24px" font-style="normal" font-weight="normal" text-decoration="none" x="600" y="0">UNREGISTERED</text><text fill="#eeeeee" stroke="none" font-family="Arial" font-size="24px" font-style="normal" font-weight="normal" text-decoration="none" x="600" y="30">UNREGISTERED</text><text fill="#eeeeee" stroke="none" font-family="Arial" font-size="24px" font-style="normal" font-weight="normal" text-decoration="none" x="600" y="60">UNREGISTERED</text><text fill="#eeeeee" stroke="none" font-family="Arial" font-size="24px" font-style="normal" font-weight="normal" text-decoration="none" x="600" y="90">UNREGISTERED</text><text fill="#eeeeee" stroke="none" font-family="Arial" font-size="24px" font-style="normal" font-weight="normal" text-decoration="none" x="600" y="120">UNREGISTERED</text><text fill="#eeeeee" stroke="none" font-family="Arial" font-size="24px" font-style="normal" font-weight="normal" text-decoration="none" x="600" y="150">UNREGISTERED</text><text fill="#eeeeee" stroke="none" font-family="Arial" font-size="24px" font-style="normal" font-weight="normal" text-decoration="none" x="600" y="180">UNREGISTERED</text><text fill="#eeeeee" stroke="none" font-family="Arial" font-size="24px" font-style="normal" font-weight="normal" text-decoration="none" x="600" y="210">UNREGISTERED</text><text fill="#eeeeee" stroke="none" font-family="Arial" font-size="24px" font-style="normal" font-weight="normal" text-decoration="none" x="600" y="240">UNREGISTERED</text><text fill="#eeeeee" stroke="none" font-family="Arial" font-size="24px" font-style="normal" font-weight="normal" text-decoration="none" x="600" y="270">UNREGISTERED</text><text fill="#eeeeee" stroke="none" font-family="Arial" font-size="24px" font-style="normal" font-weight="normal" text-decoration="none" x="600" y="300">UNREGISTERED</text><text fill="#eeeeee" stroke="none" font-family="Arial" font-size="24px" font-style="normal" font-weight="normal" text-decoration="none" x="600" y="330">UNREGISTERED</text><text fill="#eeeeee" stroke="none" font-family="Arial" font-size="24px" font-style="normal" font-weight="normal" text-decoration="none" x="600" y="360">UNREGISTERED</text><text fill="#eeeeee" stroke="none" font-family="Arial" font-size="24px" font-style="normal" font-weight="normal" text-decoration="none" x="600" y="390">UNREGISTERED</text><text fill="#eeeeee" stroke="none" font-family="Arial" font-size="24px" font-style="normal" font-weight="normal" text-decoration="none" x="600" y="420">UNREGISTERED</text><g transform="translate(-110,-38) scale(1,1)"><path fill="#008400" stroke="none" d="M 137.5 48 L 200.69677734375 48 Q 218.19677734375 48 218.19677734375 65.5 L 218.19677734375 64.5 Q 218.19677734375 82 200.69677734375 82 L 137.5 82 Q 120 82 120 64.5 L 120 65.5 Q 120 48 137.5 48 Z"/></g><g transform="translate(-110,-38) scale(1,1)"><path fill="none" stroke="#000000" d="M 137.5 48 L 200.69677734375 48 Q 218.19677734375 48 218.19677734375 65.5 L 218.19677734375 64.5 Q 218.19677734375 82 200.69677734375 82 L 137.5 82 Q 120 82 120 64.5 L 120 65.5 Q 120 48 137.5 48 Z" stroke-miterlimit="10"/></g><g transform="translate(-110,-38) scale(1,1)"><g><path fill="none" stroke="none"/><text fill="#000000" stroke="none" font-family="Arial" font-size="15px" font-style="normal" font-weight="normal" text-decoration="none" x="153.259765625" y="72.5">Start</text></g></g><g transform="translate(-110,-38) scale(1,1)"><path fill="#d63500" stroke="none" d="M 531 48 L 625.21875 48 L 606.21875 82 L 512 82 L 531 48"/></g><g transform="translate(-110,-38) scale(1,1)"><path fill="none" stroke="#000000" d="M 531 48 L 625.21875 48 L 606.21875 82 L 512 82 L 531 48 L 531 48" stroke-miterlimit="10"/></g><g transform="translate(-110,-38) scale(1,1)"><g><path fill="none" stroke="none"/><text fill="#000000" stroke="none" font-family="Arial" font-size="15px" font-style="normal" font-weight="normal" text-decoration="none" x="521.5" y="72.5">reservation_id</text></g></g><g transform="translate(-110,-38) scale(1,1)"><path fill="#d63500" stroke="none" d="M 788 56 L 847.5439453125 56 L 835.5439453125 90 L 776 90 L 788 56"/></g><g transform="translate(-110,-38) scale(1,1)"><path fill="none" stroke="#000000" d="M 788 56 L 847.5439453125 56 L 835.5439453125 90 L 776 90 L 788 56 L 788 56" stroke-miterlimit="10"/></g><g transform="translate(-110,-38) scale(1,1)"><g><path fill="none" stroke="none"/><text fill="#000000" stroke="none" font-family="Arial" font-size="15px" font-style="normal" font-weight="normal" text-decoration="none" x="785.5" y="80.5">book_id</text></g></g><g transform="translate(-110,-38) scale(1,1)"><rect fill="#568eff" stroke="none" x="312" y="232" width="175" height="64"/></g><g transform="translate(-110,-38) scale(1,1)"><path fill="none" stroke="#000000" d="M 312 232 L 487 232 L 487 296 L 312 296 L 312 232 Z Z" stroke-miterlimit="10"/></g><g transform="translate(-110,-38) scale(1,1)"><g><path fill="none" stroke="none"/><text fill="#000000" stroke="none" font-family="Arial" font-size="15px" font-style="normal" font-weight="normal" text-decoration="none" x="346.974365234375" y="256.5">Forward data to</text><text fill="#000000" stroke="none" font-family="Arial" font-size="15px" font-style="normal" font-weight="normal" text-decoration="none" x="344.890625" y="271.5">controller cancel</text><text fill="#000000" stroke="none" font-family="Arial" font-size="15px" font-style="normal" font-weight="normal" text-decoration="none" x="362.399169921875" y="286.5">reservation</text></g></g><g transform="translate(-110,-38) scale(1,1)"><path fill="#ff0000" stroke="none" d="M 361.5 416 L 424.69677734375 416 Q 442.19677734375 416 442.19677734375 433.5 L 442.19677734375 432.5 Q 442.19677734375 450 424.69677734375 450 L 361.5 450 Q 344 450 344 432.5 L 344 433.5 Q 344 416 361.5 416 Z"/></g><g transform="translate(-110,-38) scale(1,1)"><path fill="none" stroke="#000000" d="M 361.5 416 L 424.69677734375 416 Q 442.19677734375 416 442.19677734375 433.5 L 442.19677734375 432.5 Q 442.19677734375 450 424.69677734375 450 L 361.5 450 Q 344 450 344 432.5 L 344 433.5 Q 344 416 361.5 416 Z" stroke-miterlimit="10"/></g><g transform="translate(-110,-38) scale(1,1)"><g><path fill="none" stroke="none"/><text fill="#000000" stroke="none" font-family="Arial" font-size="15px" font-style="normal" font-weight="normal" text-decoration="none" x="379.753662109375" y="440.5">End</text></g></g><g transform="translate(-110,-38) scale(1,1)"><path fill="none" stroke="#000000" d="M 189 82 L 189 224 M 189 224 A 8 8 0 0 0 197 232 L 312 232" stroke-miterlimit="10"/></g><g transform="translate(-110,-38) scale(1,1)"><path fill="#000000" stroke="none" d="M 301.83732514237585 236.209517756016 L 312 232 L 301.83732514237585 227.790482243984"/></g><g transform="translate(-110,-38) scale(1,1)"><path fill="none" stroke="#000000" d="M 301.83732514237585 236.209517756016 L 312 232 L 301.83732514237585 227.790482243984 L 301.83732514237585 236.209517756016" stroke-miterlimit="10"/></g><g transform="translate(-110,-38) scale(1,1)"><path fill="none" stroke="#000000" d="M 554 82 L 554 224 M 554 224 A 8 8 0 0 1 546 232 L 487 232" stroke-miterlimit="10"/></g><g transform="translate(-110,-38) scale(1,1)"><path fill="#000000" stroke="none" d="M 497.16267485762415 227.790482243984 L 487 232 L 497.16267485762415 236.209517756016"/></g><g transform="translate(-110,-38) scale(1,1)"><path fill="none" stroke="#000000" d="M 497.16267485762415 227.790482243984 L 487 232 L 497.16267485762415 236.209517756016 L 497.16267485762415 227.790482243984" stroke-miterlimit="10"/></g><g transform="translate(-110,-38) scale(1,1)"><path fill="none" stroke="#000000" d="M 776 90 L 776 248 M 776 248 A 8 8 0 0 1 768 256 L 487 256" stroke-miterlimit="10"/></g><g transform="translate(-110,-38) scale(1,1)"><path fill="#000000" stroke="none" d="M 497.16267485762415 251.790482243984 L 487 256 L 497.16267485762415 260.209517756016"/></g><g transform="translate(-110,-38) scale(1,1)"><path fill="none" stroke="#000000" d="M 497.16267485762415 251.790482243984 L 487 256 L 497.16267485762415 260.209517756016 L 497.16267485762415 251.790482243984" stroke-miterlimit="10"/></g><g transform="translate(-110,-38) scale(1,1)"><path fill="none" stroke="#000000" d="M 398 296 L 398 416" stroke-miterlimit="10"/></g><g transform="translate(-110,-38) scale(1,1)"><path fill="#000000" stroke="none" d="M 393.790482243984 405.83732514237585 L 398 416 L 402.209517756016 405.83732514237585"/></g><g transform="translate(-110,-38) scale(1,1)"><path fill="none" stroke="#000000" d="M 393.790482243984 405.83732514237585 L 398 416 L 402.209517756016 405.83732514237585 L 393.790482243984 405.83732514237585" stroke-miterlimit="10"/></g></g></svg>